<svg id="bonus" xmlns="http://www.w3.org/2000/svg" viewBox="0 0 16 16"><title>leap-icons</title><path d="M15.11,16H0.89A0.84,0.84,0,0,1,0,15.11V0.89A0.84,0.84,0,0,1,.89,0H15.11A0.84,0.84,0,0,1,16,.89V15.11A0.84,0.84,0,0,1,15.11,16Zm-5.33-.89a0.89,0.89,0,1,0,0-1.78A0.89,0.89,0,0,0,9.78,15.11Zm-3.56,0a0.89,0.89,0,0,0,0-1.78A0.89,0.89,0,0,0,6.22,15.11Zm-3.56,0a0.89,0.89,0,0,0,0-1.78A0.89,0.89,0,0,0,2.67,15.11Zm0-14.22a0.84,0.84,0,0,0-.89.89,0.84,0.84,0,0,0,.89.89,0.84,0.84,0,0,0,.89-0.89A0.84,0.84,0,0,0,2.67.89Zm3.56,0a0.84,0.84,0,0,0-.89.89,0.84,0.84,0,0,0,.89.89,0.84,0.84,0,0,0,.89-0.89A0.84,0.84,0,0,0,6.22.89Zm3.56,0a0.84,0.84,0,0,0-.89.89,0.84,0.84,0,0,0,.89.89,0.84,0.84,0,0,0,.89-0.89A0.84,0.84,0,0,0,9.78.89Zm3.56,0a0.84,0.84,0,0,0-.89.89,0.89,0.89,0,0,0,1.78,0A0.84,0.84,0,0,0,13.33.89Zm0.89,2.67H1.78v8.89H14.22V3.56Zm-0.89,9.78a0.89,0.89,0,1,0,.89.89A0.84,0.84,0,0,0,13.33,13.33Zm-6.67-8H6.84l3.64,2.22a0.94,0.94,0,0,1,.18.44,0.67,0.67,0,0,1-.18.36L6.84,10.58a0.28,0.28,0,0,1-.18.09c-0.09,0-.18,0-0.18-0.09a0.37,0.37,0,0,1-.27-0.36V5.78A0.46,0.46,0,0,1,6.4,5.42,0.33,0.33,0,0,1,6.67,5.33Z"/></svg>