<svg id="closed-caption" xmlns="http://www.w3.org/2000/svg" viewBox="0 0 16 16"><title>leap-icons</title><path d="M12.69,2A1.31,1.31,0,0,1,14,3.31v9.37A1.31,1.31,0,0,1,12.69,14H3.31A1.31,1.31,0,0,1,2,12.69V3.31A1.31,1.31,0,0,1,3.31,2h9.37m0-2H3.31A3.31,3.31,0,0,0,0,3.31v9.37A3.31,3.31,0,0,0,3.31,16h9.37A3.31,3.31,0,0,0,16,12.69V3.31A3.31,3.31,0,0,0,12.69,0h0Z"/><path d="M10.84,10a0.93,0.93,0,0,0,.73-0.29A1.42,1.42,0,0,0,12,8.8a0.58,0.58,0,0,1,1.09.36,2.74,2.74,0,0,1-.8,1.38,2.31,2.31,0,0,1-1.45.44,2.16,2.16,0,0,1-1.75-.73,3.21,3.21,0,0,1-.73-2.11A2.94,2.94,0,0,1,9.09,6a2.21,2.21,0,0,1,1.82-.87,2.4,2.4,0,0,1,1.6.58,2.21,2.21,0,0,1,.58,1A0.58,0.58,0,0,1,12,7a1.11,1.11,0,0,0-.36-0.65,1.23,1.23,0,0,0-.73-0.22,1.17,1.17,0,0,0-.95.44A2.5,2.5,0,0,0,9.6,8,2.6,2.6,0,0,0,10,9.53,1.13,1.13,0,0,0,10.84,10Z"/><path d="M5.31,10A0.93,0.93,0,0,0,6,9.67a1.35,1.35,0,0,0,.51-0.95,0.58,0.58,0,0,1,1.09.36,2.74,2.74,0,0,1-.8,1.38,2.31,2.31,0,0,1-1.45.44,2.16,2.16,0,0,1-1.75-.73,3.21,3.21,0,0,1-.73-2.11,2.94,2.94,0,0,1,.73-2.18,2.21,2.21,0,0,1,1.75-.8A2.4,2.4,0,0,1,7,5.67a2.21,2.21,0,0,1,.58,1A0.58,0.58,0,0,1,6.47,7a0.84,0.84,0,0,0-.36-0.65,1.23,1.23,0,0,0-.73-0.22,1,1,0,0,0-1,.44A2.34,2.34,0,0,0,4,8a2.6,2.6,0,0,0,.36,1.53A1.62,1.62,0,0,0,5.31,10Z"/></svg>