<svg id="collection" xmlns="http://www.w3.org/2000/svg" viewBox="0 0 16 16"><title>leap-icons</title><path d="M15.11,16H2.67a0.84,0.84,0,0,1-.89-0.89V14.22H0.89a0.89,0.89,0,0,1,0-1.78H1.78V10.67H0.89A0.84,0.84,0,0,1,0,9.78,0.84,0.84,0,0,1,.89,8.89H1.78V7.11H0.89A0.84,0.84,0,0,1,0,6.22,0.84,0.84,0,0,1,.89,5.33H1.78V3.56H0.89A0.84,0.84,0,0,1,0,2.67,0.84,0.84,0,0,1,.89,1.78H1.78V0.89A0.84,0.84,0,0,1,2.67,0H15.11A0.84,0.84,0,0,1,16,.89V15.11A0.84,0.84,0,0,1,15.11,16ZM14.22,1.78H3.56V14.22H14.22V1.78ZM12.44,5.33H5.33V3.56h7.11V5.33Zm0,3.56H5.33V7.11h7.11V8.89Z"/></svg>