<svg id="conference" xmlns="http://www.w3.org/2000/svg" viewBox="0 0 16 16"><title>leap-icons</title><path d="M15.11,13.29H10l1.51,1.87c0.27,0.27.09,0.62-.27,0.8a0.92,0.92,0,0,1-1.07-.18l-2-2.49H7.82l-2,2.4a0.92,0.92,0,0,1-1.07.18c-0.36-.18-0.53-0.44-0.27-0.8L6,13.29H0.89A0.84,0.84,0,0,1,0,12.4V0.84A0.84,0.84,0,0,1,.89,0H15.11A0.84,0.84,0,0,1,16,.84V12.4A0.89,0.89,0,0,1,15.11,13.29ZM14.22,1.73H1.78v9.78H14.22V1.73ZM5.78,4.4A2.22,2.22,0,1,1,3.56,6.62,2.2,2.2,0,0,1,5.78,4.4ZM9.33,5.29H12a0.44,0.44,0,0,1,0,.89H9.33A0.44,0.44,0,0,1,9.33,5.29Zm0,1.78H12A0.44,0.44,0,0,1,12,8H9.33A0.44,0.44,0,0,1,9.33,7.06Z"/></svg>