<svg id="course" xmlns="http://www.w3.org/2000/svg" viewBox="0 0 16 16"><title>leap-icons</title><path d="M0,1V12.84a1.14,1.14,0,0,0,1,1.07c1.69,0.18,4.89.53,6,1.34l0.27,0.27,0.36,0.36a0.54,0.54,0,0,0,.71,0l0.36-.36L9,15.24c1.16-.89,4.36-1.25,6-1.34a1.14,1.14,0,0,0,1-1.07V1a1,1,0,0,0-1-1C13.24,0.09,9.78.45,8,1.69,6.22,0.45,2.76.09,1,0A1,1,0,0,0,0,1ZM7.11,13.37a16.49,16.49,0,0,0-5.33-1.16V1.78A11.19,11.19,0,0,1,7.11,3.3V13.37Zm7.11-1.16a16.49,16.49,0,0,0-5.33,1.16V3.3a6.75,6.75,0,0,1,2.13-1,18.16,18.16,0,0,1,2.13-.45c0.36,0,.71-0.09,1.07-0.09V12.21Z"/></svg>