<svg id="exam" xmlns="http://www.w3.org/2000/svg" viewBox="0 0 16 16"><title>leap-icons</title><path d="M15.11,0H0.89A0.84,0.84,0,0,0,0,.89V15.11A0.84,0.84,0,0,0,.89,16H15.11A0.84,0.84,0,0,0,16,15.11V0.89A0.84,0.84,0,0,0,15.11,0ZM14.22,14.22H1.78V1.78H14.22V14.22Z"/><path d="M4.13,5.33h7.73a0.84,0.84,0,0,0,.89-0.89,0.84,0.84,0,0,0-.89-0.89H4.13a0.84,0.84,0,0,0-.89.89A0.84,0.84,0,0,0,4.13,5.33Z"/><path d="M4.13,8.89h7.73A0.84,0.84,0,0,0,12.76,8a0.84,0.84,0,0,0-.89-0.89H4.13A0.84,0.84,0,0,0,3.24,8,0.84,0.84,0,0,0,4.13,8.89Z"/><path d="M4.13,12.44h7.73a0.89,0.89,0,1,0,0-1.78H4.13A0.89,0.89,0,1,0,4.13,12.44Z"/></svg>