<svg id="gear" xmlns="http://www.w3.org/2000/svg" viewBox="0 0 16 16"><title>leap-icons</title><path d="M15.95,7.31a0.83,0.83,0,0,0-.64-0.53l-1.81-.53a3.55,3.55,0,0,0-.32-0.64l1-1.6a2.35,2.35,0,0,0,.11-0.85,3.32,3.32,0,0,0-.43-0.64A1.36,1.36,0,0,0,13.07,2a0.39,0.39,0,0,0-.32-0.11c-0.11,0-.32.11-0.43,0.11l-1.6,1C10.51,2.83,10.19,2.83,10,2.72L9.44,0.91A0.79,0.79,0,0,0,8.91.27,1.21,1.21,0,0,0,8.05,0C7.73,0,7.41.11,7.2,0.11a1,1,0,0,0-.48.64L6.19,2.56C6,2.67,5.65,2.77,5.44,2.88l-1.6-1a0.81,0.81,0,0,0-.43-0.11c-0.11,0-.32,0-0.32.11A1.63,1.63,0,0,0,1.92,3.09a0.91,0.91,0,0,0,0,.75l1,1.6C2.77,5.65,2.67,6,2.56,6.19l-1.81.53a0.67,0.67,0,0,0-.53.53,1.21,1.21,0,0,0-.21.8C0,8.37.11,8.59,0.11,8.91a2.83,2.83,0,0,0,.64.53L2.56,9.87a5.2,5.2,0,0,0,.32.75l-1,1.71a2.35,2.35,0,0,0-.11.85,2.61,2.61,0,0,0,.43.69,2.23,2.23,0,0,0,.64.43c0.11,0,.32.11,0.43,0.11s0.32-.11.43-0.11l1.6-1L6,13.65l0.53,1.81a4.64,4.64,0,0,0,.75.43,2.65,2.65,0,0,0,.85.11c0.32,0,.64-0.11.85-0.11a2.33,2.33,0,0,0,.43-0.53l0.53-1.81,0.64-.32,1.6,1a0.64,0.64,0,0,0,.43.11c0.11,0,.32,0,0.32-0.11a3.32,3.32,0,0,0,.64-0.43A2.23,2.23,0,0,0,14,13.12a0.86,0.86,0,0,0-.11-0.85l-1-1.6A0.77,0.77,0,0,0,13.33,10l1.81-.53A1.09,1.09,0,0,0,15.79,9a2.35,2.35,0,0,0,.11-0.85A1.43,1.43,0,0,0,15.95,7.31Zm-5.44.75A2.45,2.45,0,1,1,8.05,5.6,2.48,2.48,0,0,1,10.51,8.05Z" style="fill:#010101"/></svg>