<svg id="github" xmlns="http://www.w3.org/2000/svg" viewBox="0 0 16 16"><title>leap-icons</title><path d="M13.79,0S12.94-.26,11,1.09a9.41,9.41,0,0,0-5.08,0C4-.26,3.13,0,3.13,0A3.84,3.84,0,0,0,3,2.78,4.07,4.07,0,0,0,2,5.57c0,4,2.37,4.88,4.62,5.14A2.24,2.24,0,0,0,6,12.1a2.13,2.13,0,0,1-3-.86,2.14,2.14,0,0,0-1.55-1.07s-1,0-.07.63a2.74,2.74,0,0,1,1.13,1.52s0.6,2,3.42,1.39c0,0.87,0,1.52,0,1.77a0.51,0.51,0,0,1-.69.5l0,0h6.71l-0.26,0a0.51,0.51,0,0,1-.7-0.5c0-.34,0-1.46,0-2.85a2.52,2.52,0,0,0-.69-1.93c2.26-.26,4.63-1.14,4.63-5.13a4.07,4.07,0,0,0-1-2.79A3.82,3.82,0,0,0,13.79,0Z"/></svg>