<svg id="instruction" xmlns="http://www.w3.org/2000/svg" viewBox="0 0 16 16"><title>leap-icons</title><path d="M15.75,5.6L13.08,2.93a0.89,0.89,0,0,0-.62-0.27H9.79V0.89A0.89,0.89,0,0,0,8.9,0H6.23a0.89,0.89,0,0,0-.89.89V2.67H1.07A1.07,1.07,0,0,0,0,3.73v5A1.07,1.07,0,0,0,1.07,9.78H5.34v5.33a0.89,0.89,0,0,0,.89.89H8.9a0.89,0.89,0,0,0,.89-0.89V9.78h2.67a0.89,0.89,0,0,0,.62-0.27l2.67-2.67A0.89,0.89,0,0,0,15.75,5.6ZM7.12,1.78H8V2.67H7.12V1.78ZM8,14.22H7.12V9.78H8v4.44ZM12.1,8H1.78V4.44H12.1l1.78,1.78Z"/></svg>