<svg id="linkedin" xmlns="http://www.w3.org/2000/svg" viewBox="0 0 16 16"><title>leap-icons</title><path d="M14.67,16H1.33A1.26,1.26,0,0,1,0,14.67V1.33A1.26,1.26,0,0,1,1.33,0H14.67A1.26,1.26,0,0,1,16,1.33V14.67A1.26,1.26,0,0,1,14.67,16Zm-12-2.67H4.93V6.13H2.67v7.2ZM3.87,2.67a1.23,1.23,0,0,0-1.33,1.2,1.2,1.2,0,0,0,1.2,1.2h0a1.23,1.23,0,0,0,1.33-1.2A1.17,1.17,0,0,0,3.87,2.67ZM13.2,9.2c0-2.27-1.07-3.2-2.67-3.2a2.06,2.06,0,0,0-2,1.2V6.13H6.27v7.2H8.53v-4A1.53,1.53,0,0,1,9.87,7.87c0.8,0,1.2.67,1.2,1.6v3.87H13.2V9.2Zm-4.67-2h0Z"/></svg>