<svg id="local-exercise-suggested" xmlns="http://www.w3.org/2000/svg" viewBox="0 0 16 16"><title>leap-icons</title><path d="M4.81,0.77a0.72,0.72,0,0,0-.4.07L4,1.08H3.37l0,0h0l0,0h0l0,0h0l0,0h0l0,0h0l0,0h0l0,0h0l0,0H2.89a0.74,0.74,0,0,0-.1,1,0.73,0.73,0,0,0,1,.1,6.58,6.58,0,0,1,1.24-.82,0.73,0.73,0,0,0,.32-1A0.72,0.72,0,0,0,4.81.77h0Zm-3,2.81a0.73,0.73,0,0,0-.7.35L1.06,4h0l0,0H1l0,0H1v0H1v0H0.78v0h0v0h0v0h0v0h0v0h0v0h0v0h0v0h0l0,0h0Q0.48,5.26.37,5.61a0.73,0.73,0,0,0,.47.92L1,6.55A0.73,0.73,0,0,0,1.76,6a6.59,6.59,0,0,1,.61-1.36,0.74,0.74,0,0,0-.55-1.1h0Zm-1,4H0.7a0.73,0.73,0,0,0-.7.76H0A8.08,8.08,0,0,0,.17,9.74h0v0h0v0h0v0h0v0h0v0h0v0h0a0.73,0.73,0,0,0,.63.54,0.72,0.72,0,0,0,.26,0,0.73,0.73,0,0,0,.51-0.9,6.56,6.56,0,0,1-.22-1.48A0.73,0.73,0,0,0,.8,7.58h0Zm1.29,3.91a0.72,0.72,0,0,0-.49.13,0.74,0.74,0,0,0-.18,1A8.07,8.07,0,0,0,2.62,14a0.72,0.72,0,0,0,1,0,0.74,0.74,0,0,0,0-1,6.66,6.66,0,0,1-1-1.13,0.72,0.72,0,0,0-.52-0.31h0Zm3.18,2.59a0.73,0.73,0,0,0-.36,1.4,8,8,0,0,0,.87.31H6.47l0.2,0h0a0.73,0.73,0,0,0,.2-1.45,6.53,6.53,0,0,1-1.43-.41l-0.2-.05h0Zm5.65,0a0.72,0.72,0,0,0-.36.06,6.46,6.46,0,0,1-1.42.43A0.73,0.73,0,0,0,9.2,16H9.4a7.79,7.79,0,0,0,.79-0.18H11l0.13-.05a0.74,0.74,0,0,0-.22-1.41h0Zm3.17-2.62a0.73,0.73,0,0,0-.68.32,6.61,6.61,0,0,1-1,1.13,0.74,0.74,0,0,0,0,1,0.72,0.72,0,0,0,1,0l0.11-.1h0l0,0h0.1l0,0h0q0.28-.28.53-0.59h0l0,0h0v0h0.13l0,0h0l0.21-.3a0.74,0.74,0,0,0-.19-1,0.75,0.75,0,0,0-.33-0.12h0Zm1.26-3.92H15.3a0.73,0.73,0,0,0-.75.71c0,0.17,0,.34,0,0.51a6.76,6.76,0,0,1-.17,1,0.73,0.73,0,0,0,.52.89l0.11,0a0.73,0.73,0,0,0,.78-0.54,8.21,8.21,0,0,0,.17-0.88h0v0h0v0h0q0-.22,0-0.43a0.72,0.72,0,0,0-.64-0.75h0Zm-1-4a0.72,0.72,0,0,0-.45.1,0.73,0.73,0,0,0-.25,1A6.65,6.65,0,0,1,14.23,6a0.73,0.73,0,1,0,1.38-.45,7.91,7.91,0,0,0-.29-0.77h0v0h0v0H15.23v0h0v0h0Q15,4.19,14.86,3.88a0.73,0.73,0,0,0-.55-0.35h0Zm-3-2.79a0.73,0.73,0,0,0-.4,1.39,6.5,6.5,0,0,1,1.25.81,0.72,0.72,0,0,0,1-.1,0.74,0.74,0,0,0-.1-1l-0.13-.1h0l0,0H12.76l0,0h0l0,0h0A8,8,0,0,0,11.86,1h0l0,0h-0.3A0.68,0.68,0,0,0,11.29.74h0ZM8.84,0H7.35L7,0A0.73,0.73,0,0,0,7,1.5H7.2a6.51,6.51,0,0,1,1.49,0H8.75A0.73,0.73,0,0,0,8.91,0H8.84ZM10,10.69A0.77,0.77,0,0,1,8.95,9.59L10.55,8l-1.6-1.6A0.77,0.77,0,1,1,10,5.3l2.11,2.18a0.79,0.79,0,0,1,0,1.09Zm-3,0a0.8,0.8,0,0,1-1.09,0L3.85,8.53a0.77,0.77,0,0,1,0-1.08L6,5.3a0.8,0.8,0,0,1,1.09,0,0.77,0.77,0,0,1,0,1.08L5.46,8l1.6,1.58A0.77,0.77,0,0,1,7.06,10.69Z"/></svg>