<svg id="maintenance" xmlns="http://www.w3.org/2000/svg" viewBox="0 0 16 16"><title>leap-icons</title><path d="M8,16a8,8,0,1,1,8-8A8,8,0,0,1,8,16ZM8,2.13A5.87,5.87,0,1,0,13.87,8,5.85,5.85,0,0,0,8,2.13Zm2.67,5.33H10.13A0.5,0.5,0,0,1,9.6,6.93H7a1.64,1.64,0,0,0-1.55.75,0.44,0.44,0,0,1-.32.21H5.07A0.64,0.64,0,0,1,4.8,7.41a6.58,6.58,0,0,1,.37-1.28A2.31,2.31,0,0,1,6.93,4.8H9.6a0.5,0.5,0,0,1,.53-0.53h0.53a0.5,0.5,0,0,1,.53.53V6.93A0.5,0.5,0,0,1,10.67,7.47Zm-3.31,0H8.69a0.41,0.41,0,0,1,.43.37v4.05a0.38,0.38,0,0,1-.43.37H7.36a0.41,0.41,0,0,1-.43-0.37V7.84A0.38,0.38,0,0,1,7.36,7.47Z"/></svg>