<svg id="notifications" xmlns="http://www.w3.org/2000/svg" viewBox="0 0 16 16"><title>leap-icons</title><path d="M13.7,11.4a2,2,0,0,0-.9-0.6H12.7C11.3,9.5,12,8.5,12,7.1A4.73,4.73,0,0,0,9,3.2V3.1a1,1,0,1,0-2,0V3.3A4.67,4.67,0,0,0,4.2,7.1c0,1.3.6,2.4-.7,3.6a3,3,0,0,1-.8.4c-0.1.1-.3,0.2-0.4,0.3a1,1,0,0,0,0,1.4,2,2,0,0,0,.9.6,8.08,8.08,0,0,0,2.1.5C6.1,13.9,7,14,8,14a14.61,14.61,0,0,0,3.9-.4,3.92,3.92,0,0,0,1.3-.5,1.76,1.76,0,0,0,.5-0.4A1.49,1.49,0,0,0,14,12,0.86,0.86,0,0,0,13.7,11.4Zm-1.3.8a6,6,0,0,1-1.8.4,20.12,20.12,0,0,1-2.6.1,12.63,12.63,0,0,1-3.7-.4A4.65,4.65,0,0,1,3.4,12a0.1,0.1,0,0,0,.1-0.1,6,6,0,0,1,1.8-.4A9.15,9.15,0,0,1,7,11.4a1.06,1.06,0,0,0,.9.8,0.88,0.88,0,0,0,.9-0.8,17,17,0,0,1,2.7.3,4.65,4.65,0,0,1,.9.3C12.5,12.1,12.5,12.2,12.4,12.2Z"/></svg>