<svg id="points" xmlns="http://www.w3.org/2000/svg" viewBox="0 0 16 16"><title>leap-icons</title><path d="M8,16a8,8,0,1,1,8-8A8,8,0,0,1,8,16ZM8,4.27A3.73,3.73,0,1,0,11.73,8,3.71,3.71,0,0,0,8,4.27Z"/><path d="M14.45,3.31A8,8,0,0,1,16,8a8.18,8.18,0,0,1-3.31,6.51L10.19,11a3.67,3.67,0,0,0,1.55-3A3.5,3.5,0,0,0,11,5.81Z"/><path d="M11,5.81A3.89,3.89,0,0,0,8,4.27H8V0H8a8,8,0,0,1,6.45,3.31Z"/><path d="M5.87,5a3.79,3.79,0,0,0-1.6,3,4.16,4.16,0,0,0,.21,1.17L0.43,10.51A7.73,7.73,0,0,1,0,8,8,8,0,0,1,3.47,1.44Z"/></svg>