<svg id="quiz" xmlns="http://www.w3.org/2000/svg" viewBox="0 0 16 16"><title>leap-icons</title><path d="M8,16a8,8,0,1,1,8-8A8,8,0,0,1,8,16ZM8,1.45A6.55,6.55,0,1,0,14.55,8,6.52,6.52,0,0,0,8,1.45Zm3.64,8A1.45,1.45,0,1,1,13.09,8,1.46,1.46,0,0,1,11.64,9.45Zm0-2.18a0.69,0.69,0,0,0-.73.73,0.73,0.73,0,1,0,1.45,0A0.69,0.69,0,0,0,11.64,7.27ZM8,9.45A1.45,1.45,0,1,1,9.45,8,1.46,1.46,0,0,1,8,9.45ZM8,7.27A0.69,0.69,0,0,0,7.27,8,0.69,0.69,0,0,0,8,8.73,0.69,0.69,0,0,0,8.73,8,0.69,0.69,0,0,0,8,7.27ZM4.36,9.45A1.45,1.45,0,1,1,5.82,8,1.46,1.46,0,0,1,4.36,9.45Z"/></svg>