<svg id="rewind" xmlns="http://www.w3.org/2000/svg" viewBox="0 0 16 16"><title>leap-icons</title><path d="M9.34,6.46c1.15,0,1.92,1.09,1.92,2.5h0c0,1.41-.77,2.5-1.92,2.5S7.42,10.37,7.42,9h0C7.42,7.55,8.19,6.46,9.34,6.46ZM8.26,9c0,1,.45,1.73,1.15,1.73S10.56,9.92,10.56,9h0c0-1-.45-1.73-1.15-1.73S8.26,8,8.26,9h0ZM15,9A7,7,0,0,1,1,9.79,0.24,0.24,0,0,1,1,9.6,0.6,0.6,0,0,1,1.6,9a0.6,0.6,0,0,1,.64.64h0a5.75,5.75,0,1,0,5.7-6.4H7L7.81,4a0.63,0.63,0,1,1-.9.9L5,3a0.62,0.62,0,0,1,0-.9L6.91,0.19a0.62,0.62,0,0,1,.9,0,0.62,0.62,0,0,1,0,.9L7,1.92H8A7.06,7.06,0,0,1,15,9ZM5.31,6.46c0.19,0,.32-0.06.45-0.06h0a0.44,0.44,0,0,1,.45.45v4.22a0.45,0.45,0,1,1-.9,0V7.3L4.8,7.49H4.61A0.41,0.41,0,0,1,4.22,7.1a0.41,0.41,0,0,1,.32-0.38ZM3.14,2.56L4.61,4a0.63,0.63,0,1,1-.9.9L1.79,3a0.62,0.62,0,0,1,0-.9L3.71,0.19a0.62,0.62,0,0,1,.9,0,0.62,0.62,0,0,1,0,.9Z"/></svg>