<svg id="speed" xmlns="http://www.w3.org/2000/svg" viewBox="0 0 16 16"><title>leap-icons</title><path d="M8,16a8,8,0,1,1,8-8A7.93,7.93,0,0,1,8,16ZM8,1.45A6.55,6.55,0,1,0,14.55,8,6.52,6.52,0,0,0,8,1.45Zm5.45,6.91H12.73a0.36,0.36,0,1,1,0-.73h0.73A0.36,0.36,0,1,1,13.45,8.36Zm-1.82,3.71-0.51-.51a0.36,0.36,0,0,1,.51-0.51l0.51,0.51A0.36,0.36,0,0,1,11.64,12.07ZM11.56,4.95a0.36,0.36,0,1,1-.51-0.51l0.58-.51a0.36,0.36,0,0,1,.51.51ZM7.71,13.16a1.49,1.49,0,0,1-1.16-1.75C6.69,10.62,8.65,6.18,9,6.25S9.6,11.2,9.45,12A1.55,1.55,0,0,1,7.71,13.16ZM8.07,11a0.7,0.7,0,1,0,.58.8A0.64,0.64,0,0,0,8.07,11ZM8,3.64a0.34,0.34,0,0,1-.36-0.36V2.55a0.36,0.36,0,0,1,.73,0V3.27A0.34,0.34,0,0,1,8,3.64ZM4.36,12.07a0.36,0.36,0,0,1-.51-0.51l0.51-.51a0.36,0.36,0,0,1,.51.51ZM4.44,4.95L3.93,4.36a0.36,0.36,0,1,1,.51-0.51L4.95,4.36a0.44,0.44,0,0,1,0,.58A0.35,0.35,0,0,1,4.44,4.95ZM3.27,8.36H2.55a0.36,0.36,0,0,1,0-.73H3.27A0.36,0.36,0,0,1,3.27,8.36Z"/></svg>