<svg id="star" xmlns="http://www.w3.org/2000/svg" viewBox="0 0 16 16"><title>leap-icons</title><path d="M15.88,5.91a2.55,2.55,0,0,0-1.24-.39c-0.43-.06-1.05-0.13-1.8-0.19S11.17,5.2,10.67,5.2C10.55,4.76,10.24,4,9.93,3.28A10.86,10.86,0,0,0,8.57.39,0.6,0.6,0,0,0,8.07,0H8a0.54,0.54,0,0,0-.5.39A15.53,15.53,0,0,0,6.09,3.28C5.78,4,5.54,4.76,5.35,5.2a18,18,0,0,1-2.17.13c-0.74.06-1.36,0.13-1.8,0.19C0.52,5.65.33,5.65,0.15,5.91A0.51,0.51,0,0,0,0,6.43c0.06,0.32.19,0.77,2,2.38,0.62,0.51,1.18,1,1.55,1.29-0.12.45-.43,1.41-0.74,2.31a11.27,11.27,0,0,0-.5,1.93c-0.19.9-.25,1.22,0,1.48a0.6,0.6,0,0,0,.5.19c0.19,0,.68,0,3-1.29,0.87-.45,1.67-1,2.17-1.22,0.43,0.26,1.3.77,2.17,1.22C12.47,16,13,16,13.15,16a0.73,0.73,0,0,0,.5-0.19c0.25-.26.19-0.58,0-1.48-0.12-.45-0.31-1.09-0.5-1.93s-0.56-1.86-.74-2.31c0.37-.26.93-0.77,1.55-1.29,1.86-1.61,2-2.06,2-2.38A0.71,0.71,0,0,0,15.88,5.91Z"/></svg>