<svg id="track" xmlns="http://www.w3.org/2000/svg" viewBox="0 0 16 16"><title>leap-icons</title><path d="M3.56,0a0.84,0.84,0,0,0-.89.89V15.11a0.84,0.84,0,0,0,.89.89,0.84,0.84,0,0,0,.89-0.89V0.89A0.84,0.84,0,0,0,3.56,0Z"/><path d="M12.44,0a0.84,0.84,0,0,0-.89.89V15.11a0.89,0.89,0,1,0,1.78,0V0.89A0.84,0.84,0,0,0,12.44,0Z"/><path d="M0,13.33a0.84,0.84,0,0,0,.89.89H1.78V12.44H0.89A0.84,0.84,0,0,0,0,13.33Z"/><path d="M0,8a0.84,0.84,0,0,0,.89.89H1.78V7.11H0.89A0.84,0.84,0,0,0,0,8Z"/><path d="M0,2.67a0.84,0.84,0,0,0,.89.89H1.78V1.78H0.89A0.84,0.84,0,0,0,0,2.67Z"/><path d="M15.11,7.11H14.22V8.89h0.89A0.84,0.84,0,0,0,16,8,0.84,0.84,0,0,0,15.11,7.11Z"/><path d="M15.11,12.44H14.22v1.78h0.89A0.89,0.89,0,0,0,15.11,12.44Z"/><path d="M5.33,1.78h5.33V3.56H5.33V1.78Zm0,5.33h5.33V8.89H5.33V7.11Zm0,5.33h5.33v1.78H5.33V12.44Z"/><path d="M16,2.67a0.84,0.84,0,0,0-.89-0.89H14.22V3.56h0.89A0.84,0.84,0,0,0,16,2.67Z"/></svg>