<svg id="twitter" xmlns="http://www.w3.org/2000/svg" viewBox="0 0 16 16"><title>leap-icons</title><path id="twitter-icon" d="M14.38,4.9V5.26A9.1,9.1,0,0,1,5,14.34,9.43,9.43,0,0,1,0,12.9C0.27,12.9.45,13,.81,13a6.53,6.53,0,0,0,4-1.44A3.21,3.21,0,0,1,1.8,9.3a1.67,1.67,0,0,0,.63.18c0.36,0,.54-0.09.9-0.09A3.42,3.42,0,0,1,.63,6.34V6.16a2.85,2.85,0,0,0,1.44.36A3.1,3.1,0,0,1,.63,3.91,3.72,3.72,0,0,1,1.08,2.2,9.36,9.36,0,0,0,7.91,5.62,2.12,2.12,0,0,1,7.73,4.9a3.3,3.3,0,0,1,3.33-3.24,3.12,3.12,0,0,1,2.34,1,5.84,5.84,0,0,0,2.07-.81A2.78,2.78,0,0,1,14,3.55a20.22,20.22,0,0,0,2-.45A4.5,4.5,0,0,1,14.38,4.9Z"/></svg>