<svg id="volume" xmlns="http://www.w3.org/2000/svg" viewBox="0 0 16 16"><title>leap-icons</title><path d="M13.84,15.36a0.92,0.92,0,0,1-1.23.51,1.07,1.07,0,0,1,0-1.3,12.69,12.69,0,0,0,0-13.19,1.08,1.08,0,0,1,0-1.3,1,1,0,0,1,1.23.51A14.26,14.26,0,0,1,13.84,15.36Zm-3.55-2.25a0.8,0.8,0,0,1-.29-1A9.91,9.91,0,0,0,10,4a0.78,0.78,0,0,1,.29-1,0.74,0.74,0,0,1,1,.43,11.1,11.1,0,0,1,0,9.35A0.83,0.83,0,0,1,10.29,13.11Zm-3,.65h0a0.27,0.27,0,0,1-.14-0.14L3.62,10.87H0.72C0.29,10.87,0,9.56,0,8s0.29-2.9.72-2.9h2.9L7.1,2.32a0.27,0.27,0,0,1,.14-0.14C7.68,2.17,8,4.78,8,8S7.61,13.77,7.25,13.77Z"/></svg>