<svg id="website" xmlns="http://www.w3.org/2000/svg" viewBox="0 0 16 16"><title>leap-icons</title><path d="M7.84,6.64h0v0ZM8,0a8,8,0,1,0,8,8A8,8,0,0,0,8,0Zm5.11,3.13a1.13,1.13,0,0,0-.69.16,0.87,0.87,0,0,1-.26.17c-0.1,0-.21,0-0.31,0-0.36.12-.31,0.9-0.79,0.78a1,1,0,0,1-.5-0.49c-0.1-.15-0.28-0.28-0.16-0.47-0.06,0-.12,0-0.17,0a1.32,1.32,0,0,1,.38-0.24c0.11-.22-0.29-0.24-0.41-0.27,0.14-.15.21,0,0.34,0s-0.07-.2-0.15-0.22-0.48.13-.22-0.11l-1-.62C9.15,2.11,9.64,2.24,9.8,2.32a0.27,0.27,0,0,1-.29.19c-0.11,0-.06-0.22-0.23-0.2-0.12.27,0.24,0.19,0.28,0.35s-0.14.11-.2,0.1-0.14-.13-0.15,0a1.71,1.71,0,0,0,.21.19,0.84,0.84,0,0,1-.56-0.21,0.89,0.89,0,0,0-.63-0.14,1.16,1.16,0,0,0,.27-0.12,1.39,1.39,0,0,0,.2-0.21c0-.14,0-0.13-0.14-0.23a1.42,1.42,0,0,0-.42-0.26C7.61,1.66,8,2.25,7.58,2.34a0.68,0.68,0,0,0-.33,0s0,0.18-.09.23a1.48,1.48,0,0,1-.32.18,1.39,1.39,0,0,0-.38.34c-0.21.41,0.49,0.54,0.75,0.66A2.05,2.05,0,0,1,7.75,4c0.09,0.12-.08.24,0.11,0.32a0.23,0.23,0,0,0,.23,0C8.16,4.19,8,4.16,8,4.06s0-.12.13-0.2,0.16-.16.09-0.41a0.64,0.64,0,0,1,0-.52A1,1,0,0,1,8.79,3a0.63,0.63,0,0,1,.28.28,0.34,0.34,0,0,0,.22.15c0.14,0,.08-0.14.16-0.19s0.27,0.05.35,0.25a0.86,0.86,0,0,0,.3.38,0.75,0.75,0,0,1,.32.38,1,1,0,0,1-.44.24c-0.32.1-.92-0.17-1,0.34a0.78,0.78,0,0,1,.58-0.2,0.57,0.57,0,0,1,0,.21C9.63,5,9.77,5,9.92,4.93a0.4,0.4,0,0,0,.25-0.24,1.21,1.21,0,0,1,.12-0.23c0.15-.14.17,0,0.26,0.06a0.65,0.65,0,0,1,.17.34A1,1,0,0,0,10,5a2.07,2.07,0,0,1-.4.25,0.41,0.41,0,0,1-.27,0c0-.07.21-0.11,0.27-0.18a0.51,0.51,0,0,0-.46.18,1.36,1.36,0,0,0-.3.31,1.48,1.48,0,0,0-.21.12C8.56,5.7,8.56,5.8,8.51,5.86a0.57,0.57,0,0,0-.16.08,0.55,0.55,0,0,0,0,.22,1.18,1.18,0,0,1-.32.28,1.29,1.29,0,0,0-.21.21,2.29,2.29,0,0,1,.09.53C7.85,7.41,7.7,7,7.63,6.94a0.92,0.92,0,0,0-1-.08,0.67,0.67,0,0,0-.53.94A0.47,0.47,0,0,0,6.67,8a4.71,4.71,0,0,1,.44-0.32c0.34,0,0,.33,0,0.46s0,0.12.16,0.15a1,1,0,0,1,.29,0s0,0.21.11,0.15a0.32,0.32,0,0,0,0,.46,1.21,1.21,0,0,0,.48,0c0.29,0.08.15,0,.41-0.18s0.2,0,.32,0a0.55,0.55,0,0,1,.27-0.08,2,2,0,0,0,.29.13c0.05,0,.11,0,0.16,0a1.36,1.36,0,0,1,.62.32,1.14,1.14,0,0,0,.45.15,0.54,0.54,0,0,1,.37.4s-0.12.19-.14,0.25a1.6,1.6,0,0,0,.35,0s-0.19.14-.19,0.08a0.47,0.47,0,0,0,.14.12c0.08-.28.23-0.1,0.4,0a3.07,3.07,0,0,0,.47.1,1.27,1.27,0,0,1,.51.23,0.4,0.4,0,0,1,0,.46,2,2,0,0,0-.35.43,3.3,3.3,0,0,0,0,.48c0,0.23-.08.15-0.23,0.29a0.33,0.33,0,0,1-.17.17,0.71,0.71,0,0,0-.44.24v0a1.7,1.7,0,0,0-.1.26,1.28,1.28,0,0,1-.24.3,3.44,3.44,0,0,1-.39.46,1.42,1.42,0,0,1-.3,0c0,0.06,0,0,.06.07C10.28,14,10.13,14,9.76,14c0,0.18-.13.15-0.21,0.24a1.68,1.68,0,0,0-.1.29,2.83,2.83,0,0,0-.17.27,0.31,0.31,0,0,0,.09.13,6.9,6.9,0,0,1-.8.11c0.05-.06.06-0.12-0.1-0.13,0-.12.15-0.18,0.19-0.3s0-.08,0-0.13a0.25,0.25,0,0,0,0-.26,1.1,1.1,0,0,1,.12-0.73A10.46,10.46,0,0,0,9,12.45a1.69,1.69,0,0,0,0-.65,1.58,1.58,0,0,0-.47-0.42,2.6,2.6,0,0,1-.41-0.55,2.71,2.71,0,0,1-.2-0.32c-0.11-.24,0-0.1,0-0.24a1.53,1.53,0,0,1,0-.4C8,9.72,8.16,9.62,8.21,9.46a0.29,0.29,0,0,0-.14-0.37,1.7,1.7,0,0,0-.25,0,0.86,0.86,0,0,1-.33-0.17C7.36,8.84,7.31,8.68,7.18,8.59a0.84,0.84,0,0,0-.31-0.07,2.1,2.1,0,0,1-.3-0.24,1,1,0,0,0-.4,0A2.3,2.3,0,0,1,5.7,8.07a0.87,0.87,0,0,1-.52-0.5,1.82,1.82,0,0,0-.37-0.52,0.78,0.78,0,0,0-.44-0.4,0.62,0.62,0,0,0,.07.22,5,5,0,0,0,.31.44c0.15,0.21.09,0.25-.07,0S4.31,6.88,4.16,6.63A0.81,0.81,0,0,0,4,6.39C3.93,6.3,3.81,6.26,3.72,6.17a1.25,1.25,0,0,1-.35-1.12,1.42,1.42,0,0,0,0-.38,0.53,0.53,0,0,0-.16-0.28l-0.1-.15a1.24,1.24,0,0,0-.25-0.35L2.48,3.58A7.12,7.12,0,0,1,5.33,1.44a0.43,0.43,0,0,0,.07.17,0.44,0.44,0,0,0,.36.16C5.74,2,5.5,2,5.33,2A0.6,0.6,0,0,0,4.75,2c0.09,0.06.35,0.28,0.32,0a3.42,3.42,0,0,1,.56,0A1.16,1.16,0,0,0,6,2.15,1.42,1.42,0,0,0,6.11,2a1.44,1.44,0,0,0-.16,0c0.12-.16.24,0,0.4,0-0.17.1-.07,0.35,0.1,0.15s0-.29-0.21-0.39c0.18-.22.29-0.24,0.45,0,0-.15.15-0.09,0.28-0.08v0c-0.06,0-.12,0-0.17,0,0.13-.21,0-0.26.24-0.33a1.32,1.32,0,0,0,.63-0.15,3.72,3.72,0,0,0-.94.21c-0.12.06-.26,0.24-0.37,0.12s0.08-.32.19-0.39h0A7,7,0,0,1,9,1a0.48,0.48,0,0,0-.11.16,3,3,0,0,1-.6.28c0.23,0,.79.22,0.89-0.11l-0.22,0a1.9,1.9,0,0,1,.46-0.22,7.08,7.08,0,0,1,3.75,2.07h0ZM7.6,2.34h0Zm6.81,3.6s0,0,.06-0.06a0.79,0.79,0,0,1,.05-0.12,0.73,0.73,0,0,1,.12-0.09l0,0a6.85,6.85,0,0,1,.28,1h0a0.53,0.53,0,0,1-.15,0,0.3,0.3,0,0,1-.2-0.1,0.91,0.91,0,0,1-.17-0.19,0.36,0.36,0,0,1,0-.23A0.72,0.72,0,0,1,14.4,5.93ZM14.5,9.6a2.27,2.27,0,0,1-.4-0.43,0.84,0.84,0,0,1,0-.52,1.54,1.54,0,0,1,0-.53A1.63,1.63,0,0,1,14.19,8a1.61,1.61,0,0,1,.12-0.29,1.87,1.87,0,0,1,.28-0.21,0.75,0.75,0,0,0,.15-0.26A1,1,0,0,1,15,6.93,7.18,7.18,0,0,1,15.08,8a7.07,7.07,0,0,1-.24,1.82A0.88,0.88,0,0,1,14.5,9.6Z"/></svg>