<svg id="workshop" xmlns="http://www.w3.org/2000/svg" viewBox="0 0 16 16"><title>leap-icons</title><path d="M16,13.33l-2.49,2.4a1,1,0,0,1-.62.27h0a0.81,0.81,0,0,1-.62-0.27l-2.49-2.4h0V0.89A0.84,0.84,0,0,1,10.67,0h4.44A0.84,0.84,0,0,1,16,.89V13.33h0ZM14.22,1.78H11.56V3.56h2.67V1.78Zm0,10.49V4.44H11.56v7.82l1.33,1.07h0ZM5.33,16H0.89A0.84,0.84,0,0,1,0,15.11V0.89A0.84,0.84,0,0,1,.89,0H5.33a0.84,0.84,0,0,1,.89.89V15.11A0.84,0.84,0,0,1,5.33,16ZM4.44,1.78H1.78V3.56H3.11A0.42,0.42,0,0,1,3.56,4a0.42,0.42,0,0,1-.44.44H1.78V6.22H2.22a0.44,0.44,0,1,1,0,.89H1.78V8.89H3.11a0.44,0.44,0,1,1,0,.89H1.78v1.78H2.22a0.44,0.44,0,1,1,0,.89H1.78v1.78H4.44V1.78Z"/></svg>