<svg id="workspaces-outline" xmlns="http://www.w3.org/2000/svg" viewBox="0 0 16 16"><title>leap-icons</title><path d="M12.69,0H3.31A3.31,3.31,0,0,0,0,3.31v9.37A3.31,3.31,0,0,0,3.31,16h9.37A3.31,3.31,0,0,0,16,12.69V3.31A3.31,3.31,0,0,0,12.69,0ZM14,12.69A1.31,1.31,0,0,1,12.69,14H3.31A1.31,1.31,0,0,1,2,12.69V6H14v6.69ZM14,4H2V3.31A1.31,1.31,0,0,1,3.31,2h9.37A1.31,1.31,0,0,1,14,3.31V4Z"/><path d="M9.2,11.83a0.76,0.76,0,0,0,.4.2,0.4,0.4,0,0,0,.4-0.2L11.7,10a0.72,0.72,0,0,0,0-1L10,7.22a0.61,0.61,0,0,0-.8,0,0.9,0.9,0,0,0,0,1l1.2,1.3-1.2,1.2A0.9,0.9,0,0,0,9.2,11.83Z"/><path d="M6,11.83a0.34,0.34,0,0,0,.4.2,1.06,1.06,0,0,0,.5-0.2,0.76,0.76,0,0,0,0-1L5.7,9.63l1.2-1.3a1.42,1.42,0,0,0-.1-1.1,0.47,0.47,0,0,0-.8,0L4.2,9a0.72,0.72,0,0,0,0,1Z"/></svg>