<svg id="workspaces" xmlns="http://www.w3.org/2000/svg" viewBox="0 0 16 16"><title>leap-icons</title><path d="M15,16H1a0.94,0.94,0,0,1-1-1V1A0.94,0.94,0,0,1,1,0H15a0.94,0.94,0,0,1,1,1V15A0.94,0.94,0,0,1,15,16ZM9.2,12.8a0.76,0.76,0,0,0,.4.2,0.4,0.4,0,0,0,.4-0.2L11.7,11a0.73,0.73,0,0,0,0-1L10,8.2a0.61,0.61,0,0,0-.8,0,0.9,0.9,0,0,0,0,1l1.2,1.3L9.2,11.7A0.9,0.9,0,0,0,9.2,12.8ZM4.2,11L6,12.8a0.34,0.34,0,0,0,.4.2,1.06,1.06,0,0,0,.5-0.2,0.76,0.76,0,0,0,0-1L5.7,10.6,6.9,9.3a1.42,1.42,0,0,0-.1-1.1,0.47,0.47,0,0,0-.8,0L4.2,10A0.73,0.73,0,0,0,4.2,11ZM14,2H2V5H14V2ZM3.5,3a0.47,0.47,0,0,1,.5.5,0.47,0.47,0,0,1-.5.5A0.47,0.47,0,0,1,3,3.5,0.47,0.47,0,0,1,3.5,3Zm2,0a0.47,0.47,0,0,1,.5.5,0.47,0.47,0,0,1-.5.5A0.47,0.47,0,0,1,5,3.5,0.47,0.47,0,0,1,5.5,3Zm2,0a0.47,0.47,0,0,1,.5.5,0.5,0.5,0,0,1-1,0A0.47,0.47,0,0,1,7.5,3Z"/></svg>