<svg xmlns="http://www.w3.org/2000/svg" xmlns:xlink="http://www.w3.org/1999/xlink" style="display:none"><symbol  viewBox='0 0 16 16' id='icon-add'>
    <title>leap-icons</title><path d="M14.5,6.5h-5v-5a1.5,1.5,0,0,0-3,0v5h-5a1.5,1.5,0,0,0,0,3h5v5a1.5,1.5,0,0,0,3,0v-5h5A1.5,1.5,0,0,0,14.5,6.5Z"></path>
  </symbol><symbol  viewBox='0 0 16 16' id='icon-announcement'>
    <title>leap-icons</title><path id="announcement-icon" d="M15.11,0c-2.49.62-8.53,2.67-8.89,2.67H0.89A0.87,0.87,0,0,0,0,3.58V8.91a0.87,0.87,0,0,0,.89.89H3.2L2,14.69a1.09,1.09,0,0,0,.89,1.24,1.09,1.09,0,0,0,1.42-.62L5.6,9.8H6.22s6.4,2,8.89,2.67A0.76,0.76,0,0,0,16,11.58V0.91C16,0.38,16,0,15.11,0ZM14,10.15C12.8,9.8,6.22,8,6.22,8H2a0.3,0.3,0,0,1-.27-0.36V4.73A0.26,0.26,0,0,1,2,4.46H6.22c0.18,0,6.4-1.69,7.64-2,0.27-.09.36-0.09,0.36,0v7.73S14.22,10.24,14,10.15Z"></path>
  </symbol><symbol  viewBox='0 0 16 16' id='icon-arrow'>
    <title>leap-icons</title><path d="M8.93,0.4L15.6,7.07a1.32,1.32,0,0,1-1.87,1.87l-4.4-4.4V14.67A1.26,1.26,0,0,1,8,16a1.26,1.26,0,0,1-1.33-1.33V4.53l-4.4,4.4a1.29,1.29,0,0,1-1.87,0,1.29,1.29,0,0,1,0-1.87L7.07,0.4h0A1.29,1.29,0,0,1,8.93.4Z"></path>
  </symbol><symbol  viewBox='0 0 16 16' id='icon-bonus'>
    <title>leap-icons</title><path d="M15.11,16H0.89A0.84,0.84,0,0,1,0,15.11V0.89A0.84,0.84,0,0,1,.89,0H15.11A0.84,0.84,0,0,1,16,.89V15.11A0.84,0.84,0,0,1,15.11,16Zm-5.33-.89a0.89,0.89,0,1,0,0-1.78A0.89,0.89,0,0,0,9.78,15.11Zm-3.56,0a0.89,0.89,0,0,0,0-1.78A0.89,0.89,0,0,0,6.22,15.11Zm-3.56,0a0.89,0.89,0,0,0,0-1.78A0.89,0.89,0,0,0,2.67,15.11Zm0-14.22a0.84,0.84,0,0,0-.89.89,0.84,0.84,0,0,0,.89.89,0.84,0.84,0,0,0,.89-0.89A0.84,0.84,0,0,0,2.67.89Zm3.56,0a0.84,0.84,0,0,0-.89.89,0.84,0.84,0,0,0,.89.89,0.84,0.84,0,0,0,.89-0.89A0.84,0.84,0,0,0,6.22.89Zm3.56,0a0.84,0.84,0,0,0-.89.89,0.84,0.84,0,0,0,.89.89,0.84,0.84,0,0,0,.89-0.89A0.84,0.84,0,0,0,9.78.89Zm3.56,0a0.84,0.84,0,0,0-.89.89,0.89,0.89,0,0,0,1.78,0A0.84,0.84,0,0,0,13.33.89Zm0.89,2.67H1.78v8.89H14.22V3.56Zm-0.89,9.78a0.89,0.89,0,1,0,.89.89A0.84,0.84,0,0,0,13.33,13.33Zm-6.67-8H6.84l3.64,2.22a0.94,0.94,0,0,1,.18.44,0.67,0.67,0,0,1-.18.36L6.84,10.58a0.28,0.28,0,0,1-.18.09c-0.09,0-.18,0-0.18-0.09a0.37,0.37,0,0,1-.27-0.36V5.78A0.46,0.46,0,0,1,6.4,5.42,0.33,0.33,0,0,1,6.67,5.33Z"></path>
  </symbol><symbol  viewBox='0 0 16 16' id='icon-chevron'>
    <title>leap-icons</title><path d="M0,11.23A1.62,1.62,0,0,1,.48,10.1L6.95,3.64a1.62,1.62,0,0,1,2.26,0l6.46,6.46a1.62,1.62,0,0,1-2.26,2.26L8.08,7,2.75,12.36A1.62,1.62,0,0,1,0,11.23Z"></path>
  </symbol><symbol  viewBox='0 0 16 16' id='icon-circle'>
    <title>leap-icons</title><path d="M8,16a8,8,0,1,1,8-8A8,8,0,0,1,8,16ZM8,1.45A6.55,6.55,0,1,0,14.55,8,6.52,6.52,0,0,0,8,1.45Z"></path>
  </symbol><symbol  viewBox='0 0 16 16' id='icon-close'>
    <title>leap-icons</title><path d="M12,1.88l-4,4-4-4a1.54,1.54,0,0,0-2.12,0A1.54,1.54,0,0,0,1.88,4l4,4-4,4a1.54,1.54,0,0,0,0,2.12,1.54,1.54,0,0,0,2.12,0l4-4,4,4A1.5,1.5,0,0,0,14.12,12l-4-4,4-4a1.54,1.54,0,0,0,0-2.12A1.54,1.54,0,0,0,12,1.88Z"></path>
  </symbol><symbol  viewBox='0 0 16 16' id='icon-closed-caption'>
    <title>leap-icons</title><path d="M12.69,2A1.31,1.31,0,0,1,14,3.31v9.37A1.31,1.31,0,0,1,12.69,14H3.31A1.31,1.31,0,0,1,2,12.69V3.31A1.31,1.31,0,0,1,3.31,2h9.37m0-2H3.31A3.31,3.31,0,0,0,0,3.31v9.37A3.31,3.31,0,0,0,3.31,16h9.37A3.31,3.31,0,0,0,16,12.69V3.31A3.31,3.31,0,0,0,12.69,0h0Z"></path><path d="M10.84,10a0.93,0.93,0,0,0,.73-0.29A1.42,1.42,0,0,0,12,8.8a0.58,0.58,0,0,1,1.09.36,2.74,2.74,0,0,1-.8,1.38,2.31,2.31,0,0,1-1.45.44,2.16,2.16,0,0,1-1.75-.73,3.21,3.21,0,0,1-.73-2.11A2.94,2.94,0,0,1,9.09,6a2.21,2.21,0,0,1,1.82-.87,2.4,2.4,0,0,1,1.6.58,2.21,2.21,0,0,1,.58,1A0.58,0.58,0,0,1,12,7a1.11,1.11,0,0,0-.36-0.65,1.23,1.23,0,0,0-.73-0.22,1.17,1.17,0,0,0-.95.44A2.5,2.5,0,0,0,9.6,8,2.6,2.6,0,0,0,10,9.53,1.13,1.13,0,0,0,10.84,10Z"></path><path d="M5.31,10A0.93,0.93,0,0,0,6,9.67a1.35,1.35,0,0,0,.51-0.95,0.58,0.58,0,0,1,1.09.36,2.74,2.74,0,0,1-.8,1.38,2.31,2.31,0,0,1-1.45.44,2.16,2.16,0,0,1-1.75-.73,3.21,3.21,0,0,1-.73-2.11,2.94,2.94,0,0,1,.73-2.18,2.21,2.21,0,0,1,1.75-.8A2.4,2.4,0,0,1,7,5.67a2.21,2.21,0,0,1,.58,1A0.58,0.58,0,0,1,6.47,7a0.84,0.84,0,0,0-.36-0.65,1.23,1.23,0,0,0-.73-0.22,1,1,0,0,0-1,.44A2.34,2.34,0,0,0,4,8a2.6,2.6,0,0,0,.36,1.53A1.62,1.62,0,0,0,5.31,10Z"></path>
  </symbol><symbol  viewBox='0 0 16 16' id='icon-collection'>
    <title>leap-icons</title><path d="M15.11,16H2.67a0.84,0.84,0,0,1-.89-0.89V14.22H0.89a0.89,0.89,0,0,1,0-1.78H1.78V10.67H0.89A0.84,0.84,0,0,1,0,9.78,0.84,0.84,0,0,1,.89,8.89H1.78V7.11H0.89A0.84,0.84,0,0,1,0,6.22,0.84,0.84,0,0,1,.89,5.33H1.78V3.56H0.89A0.84,0.84,0,0,1,0,2.67,0.84,0.84,0,0,1,.89,1.78H1.78V0.89A0.84,0.84,0,0,1,2.67,0H15.11A0.84,0.84,0,0,1,16,.89V15.11A0.84,0.84,0,0,1,15.11,16ZM14.22,1.78H3.56V14.22H14.22V1.78ZM12.44,5.33H5.33V3.56h7.11V5.33Zm0,3.56H5.33V7.11h7.11V8.89Z"></path>
  </symbol><symbol  viewBox='0 0 16 16' id='icon-conference'>
    <title>leap-icons</title><path d="M15.11,13.29H10l1.51,1.87c0.27,0.27.09,0.62-.27,0.8a0.92,0.92,0,0,1-1.07-.18l-2-2.49H7.82l-2,2.4a0.92,0.92,0,0,1-1.07.18c-0.36-.18-0.53-0.44-0.27-0.8L6,13.29H0.89A0.84,0.84,0,0,1,0,12.4V0.84A0.84,0.84,0,0,1,.89,0H15.11A0.84,0.84,0,0,1,16,.84V12.4A0.89,0.89,0,0,1,15.11,13.29ZM14.22,1.73H1.78v9.78H14.22V1.73ZM5.78,4.4A2.22,2.22,0,1,1,3.56,6.62,2.2,2.2,0,0,1,5.78,4.4ZM9.33,5.29H12a0.44,0.44,0,0,1,0,.89H9.33A0.44,0.44,0,0,1,9.33,5.29Zm0,1.78H12A0.44,0.44,0,0,1,12,8H9.33A0.44,0.44,0,0,1,9.33,7.06Z"></path>
  </symbol><symbol  viewBox='0 0 16 16' id='icon-course'>
    <title>leap-icons</title><path d="M0,1V12.84a1.14,1.14,0,0,0,1,1.07c1.69,0.18,4.89.53,6,1.34l0.27,0.27,0.36,0.36a0.54,0.54,0,0,0,.71,0l0.36-.36L9,15.24c1.16-.89,4.36-1.25,6-1.34a1.14,1.14,0,0,0,1-1.07V1a1,1,0,0,0-1-1C13.24,0.09,9.78.45,8,1.69,6.22,0.45,2.76.09,1,0A1,1,0,0,0,0,1ZM7.11,13.37a16.49,16.49,0,0,0-5.33-1.16V1.78A11.19,11.19,0,0,1,7.11,3.3V13.37Zm7.11-1.16a16.49,16.49,0,0,0-5.33,1.16V3.3a6.75,6.75,0,0,1,2.13-1,18.16,18.16,0,0,1,2.13-.45c0.36,0,.71-0.09,1.07-0.09V12.21Z"></path>
  </symbol><symbol  viewBox='0 0 16 16' id='icon-edit'>
    <title>leap-icons</title><path d="M0.67,11.75L0,16l4.28-.67,8-7.88L8.55,3.74ZM14.83,1.2C13.76,0.14,12.56-.26,12,0.27l-2,2L13.77,6l2-2C16.29,3.47,15.89,2.14,14.83,1.2Z"></path>
  </symbol><symbol  viewBox='0 0 16 16' id='icon-ellipses'>
    <title>leap-icons</title><path d="M3.56,8A1.78,1.78,0,1,1,1.78,6.22,1.78,1.78,0,0,1,3.56,8ZM9.78,8A1.78,1.78,0,1,1,8,6.22,1.78,1.78,0,0,1,9.78,8ZM16,8a1.78,1.78,0,1,1-1.78-1.78A1.78,1.78,0,0,1,16,8Z"></path>
  </symbol><symbol  viewBox='0 0 16 16' id='icon-exam'>
    <title>leap-icons</title><path d="M15.11,0H0.89A0.84,0.84,0,0,0,0,.89V15.11A0.84,0.84,0,0,0,.89,16H15.11A0.84,0.84,0,0,0,16,15.11V0.89A0.84,0.84,0,0,0,15.11,0ZM14.22,14.22H1.78V1.78H14.22V14.22Z"></path><path d="M4.13,5.33h7.73a0.84,0.84,0,0,0,.89-0.89,0.84,0.84,0,0,0-.89-0.89H4.13a0.84,0.84,0,0,0-.89.89A0.84,0.84,0,0,0,4.13,5.33Z"></path><path d="M4.13,8.89h7.73A0.84,0.84,0,0,0,12.76,8a0.84,0.84,0,0,0-.89-0.89H4.13A0.84,0.84,0,0,0,3.24,8,0.84,0.84,0,0,0,4.13,8.89Z"></path><path d="M4.13,12.44h7.73a0.89,0.89,0,1,0,0-1.78H4.13A0.89,0.89,0,1,0,4.13,12.44Z"></path>
  </symbol><symbol  viewBox='0 0 16 16' id='icon-facebook'>
    <title>leap-icons</title><path d="M3.39,7.9h2V16h3V7.9h3l0.71-3H8.46a1.75,1.75,0,0,1,.2-1.52A2.25,2.25,0,0,1,10,2.94a3.93,3.93,0,0,1,1.72.61l0.91-2.94A11.48,11.48,0,0,0,9.37,0,5.9,5.9,0,0,0,6.84.51,2.59,2.59,0,0,0,5.52,1.72a4.19,4.19,0,0,0-.41,1.92V4.86H3.39v3Z"></path>
  </symbol><symbol  viewBox='0 0 16 16' id='icon-fullscreen'>
    <title>leap-icons</title><path d="M8,16H1a0.94,0.94,0,0,1-1-1V8A0.94,0.94,0,0,1,1,7,0.94,0.94,0,0,1,2,8v4.6L5.65,9a1,1,0,1,1,1.4,1.4L3.4,14H8A1,1,0,0,1,8,16Z"></path><path d="M8,0h7a0.94,0.94,0,0,1,1,1V8a1,1,0,0,1-2,0V3.4L10.35,7a1,1,0,0,1-1.4-1.4L12.6,2H8A0.94,0.94,0,0,1,7,1,0.94,0.94,0,0,1,8,0Z"></path>
  </symbol><symbol  viewBox='0 0 16 16' id='icon-gear'>
    <title>leap-icons</title><path d="M15.95,7.31a0.83,0.83,0,0,0-.64-0.53l-1.81-.53a3.55,3.55,0,0,0-.32-0.64l1-1.6a2.35,2.35,0,0,0,.11-0.85,3.32,3.32,0,0,0-.43-0.64A1.36,1.36,0,0,0,13.07,2a0.39,0.39,0,0,0-.32-0.11c-0.11,0-.32.11-0.43,0.11l-1.6,1C10.51,2.83,10.19,2.83,10,2.72L9.44,0.91A0.79,0.79,0,0,0,8.91.27,1.21,1.21,0,0,0,8.05,0C7.73,0,7.41.11,7.2,0.11a1,1,0,0,0-.48.64L6.19,2.56C6,2.67,5.65,2.77,5.44,2.88l-1.6-1a0.81,0.81,0,0,0-.43-0.11c-0.11,0-.32,0-0.32.11A1.63,1.63,0,0,0,1.92,3.09a0.91,0.91,0,0,0,0,.75l1,1.6C2.77,5.65,2.67,6,2.56,6.19l-1.81.53a0.67,0.67,0,0,0-.53.53,1.21,1.21,0,0,0-.21.8C0,8.37.11,8.59,0.11,8.91a2.83,2.83,0,0,0,.64.53L2.56,9.87a5.2,5.2,0,0,0,.32.75l-1,1.71a2.35,2.35,0,0,0-.11.85,2.61,2.61,0,0,0,.43.69,2.23,2.23,0,0,0,.64.43c0.11,0,.32.11,0.43,0.11s0.32-.11.43-0.11l1.6-1L6,13.65l0.53,1.81a4.64,4.64,0,0,0,.75.43,2.65,2.65,0,0,0,.85.11c0.32,0,.64-0.11.85-0.11a2.33,2.33,0,0,0,.43-0.53l0.53-1.81,0.64-.32,1.6,1a0.64,0.64,0,0,0,.43.11c0.11,0,.32,0,0.32-0.11a3.32,3.32,0,0,0,.64-0.43A2.23,2.23,0,0,0,14,13.12a0.86,0.86,0,0,0-.11-0.85l-1-1.6A0.77,0.77,0,0,0,13.33,10l1.81-.53A1.09,1.09,0,0,0,15.79,9a2.35,2.35,0,0,0,.11-0.85A1.43,1.43,0,0,0,15.95,7.31Zm-5.44.75A2.45,2.45,0,1,1,8.05,5.6,2.48,2.48,0,0,1,10.51,8.05Z" style="fill:#010101"></path>
  </symbol><symbol  viewBox='0 0 16 16' id='icon-github'>
    <title>leap-icons</title><path d="M13.79,0S12.94-.26,11,1.09a9.41,9.41,0,0,0-5.08,0C4-.26,3.13,0,3.13,0A3.84,3.84,0,0,0,3,2.78,4.07,4.07,0,0,0,2,5.57c0,4,2.37,4.88,4.62,5.14A2.24,2.24,0,0,0,6,12.1a2.13,2.13,0,0,1-3-.86,2.14,2.14,0,0,0-1.55-1.07s-1,0-.07.63a2.74,2.74,0,0,1,1.13,1.52s0.6,2,3.42,1.39c0,0.87,0,1.52,0,1.77a0.51,0.51,0,0,1-.69.5l0,0h6.71l-0.26,0a0.51,0.51,0,0,1-.7-0.5c0-.34,0-1.46,0-2.85a2.52,2.52,0,0,0-.69-1.93c2.26-.26,4.63-1.14,4.63-5.13a4.07,4.07,0,0,0-1-2.79A3.82,3.82,0,0,0,13.79,0Z"></path>
  </symbol><symbol  viewBox='0 0 16 16' id='icon-info'>
    <title>leap-icons</title><path d="M8,16a8,8,0,1,1,8-8A8,8,0,0,1,8,16ZM8,2a6,6,0,1,0,6,6A6,6,0,0,0,8,2ZM8,12a0.94,0.94,0,0,1-1-1V8A0.94,0.94,0,0,1,8,7,0.94,0.94,0,0,1,9,8v3A0.94,0.94,0,0,1,8,12ZM8,6A0.94,0.94,0,0,1,7,5,0.94,0.94,0,0,1,8,4,0.94,0.94,0,0,1,9,5,0.94,0.94,0,0,1,8,6Z"></path>
  </symbol><symbol  viewBox='0 0 16 16' id='icon-instruction'>
    <title>leap-icons</title><path d="M15.75,5.6L13.08,2.93a0.89,0.89,0,0,0-.62-0.27H9.79V0.89A0.89,0.89,0,0,0,8.9,0H6.23a0.89,0.89,0,0,0-.89.89V2.67H1.07A1.07,1.07,0,0,0,0,3.73v5A1.07,1.07,0,0,0,1.07,9.78H5.34v5.33a0.89,0.89,0,0,0,.89.89H8.9a0.89,0.89,0,0,0,.89-0.89V9.78h2.67a0.89,0.89,0,0,0,.62-0.27l2.67-2.67A0.89,0.89,0,0,0,15.75,5.6ZM7.12,1.78H8V2.67H7.12V1.78ZM8,14.22H7.12V9.78H8v4.44ZM12.1,8H1.78V4.44H12.1l1.78,1.78Z"></path>
  </symbol><symbol  viewBox='0 0 16 16' id='icon-linkedin'>
    <title>leap-icons</title><path d="M14.67,16H1.33A1.26,1.26,0,0,1,0,14.67V1.33A1.26,1.26,0,0,1,1.33,0H14.67A1.26,1.26,0,0,1,16,1.33V14.67A1.26,1.26,0,0,1,14.67,16Zm-12-2.67H4.93V6.13H2.67v7.2ZM3.87,2.67a1.23,1.23,0,0,0-1.33,1.2,1.2,1.2,0,0,0,1.2,1.2h0a1.23,1.23,0,0,0,1.33-1.2A1.17,1.17,0,0,0,3.87,2.67ZM13.2,9.2c0-2.27-1.07-3.2-2.67-3.2a2.06,2.06,0,0,0-2,1.2V6.13H6.27v7.2H8.53v-4A1.53,1.53,0,0,1,9.87,7.87c0.8,0,1.2.67,1.2,1.6v3.87H13.2V9.2Zm-4.67-2h0Z"></path>
  </symbol><symbol  viewBox='0 0 16 16' id='icon-loading'>
    <title>leap-icons</title><path d="M8,3.56A4.44,4.44,0,1,1,3.56,8,4.45,4.45,0,0,1,8,3.56M8,0a8,8,0,1,0,8,8A8,8,0,0,0,8,0H8Z"></path><path d="M14.22,9.78A1.78,1.78,0,0,1,12.44,8,4.45,4.45,0,0,0,8,3.56,1.78,1.78,0,1,1,8,0a8,8,0,0,1,8,8A1.78,1.78,0,0,1,14.22,9.78Z"></path>
  </symbol><symbol  viewBox='0 0 16 16' id='icon-local-exercise-badge'>
    <title>leap-icons</title><path d="M13.88,13.1L9.31,15.71A3.82,3.82,0,0,1,8,16a2.72,2.72,0,0,1-1.31-.36L2.12,13.1A2.86,2.86,0,0,1,.74,10.56V5.41A2.83,2.83,0,0,1,2.12,2.94L6.69,0.33a2.78,2.78,0,0,1,2.61,0l4.57,2.61a2.83,2.83,0,0,1,1.38,2.47v5.15A2.86,2.86,0,0,1,13.88,13.1ZM7.06,6.42A0.77,0.77,0,0,0,6,5.33L3.86,7.51a0.79,0.79,0,0,0,0,1.09L6,10.78A0.77,0.77,0,0,0,7.06,9.69L5.46,8Zm5.08,1L10,5.26A0.77,0.77,0,1,0,8.94,6.35l1.6,1.6-1.6,1.6A0.77,0.77,0,0,0,10,10.63l2.1-2.18A0.7,0.7,0,0,0,12.14,7.44Z"></path>
  </symbol><symbol  viewBox='0 0 16 16' id='icon-local-exercise-suggested'>
    <title>leap-icons</title><path d="M4.81,0.77a0.72,0.72,0,0,0-.4.07L4,1.08H3.37l0,0h0l0,0h0l0,0h0l0,0h0l0,0h0l0,0h0l0,0h0l0,0H2.89a0.74,0.74,0,0,0-.1,1,0.73,0.73,0,0,0,1,.1,6.58,6.58,0,0,1,1.24-.82,0.73,0.73,0,0,0,.32-1A0.72,0.72,0,0,0,4.81.77h0Zm-3,2.81a0.73,0.73,0,0,0-.7.35L1.06,4h0l0,0H1l0,0H1v0H1v0H0.78v0h0v0h0v0h0v0h0v0h0v0h0v0h0v0h0l0,0h0Q0.48,5.26.37,5.61a0.73,0.73,0,0,0,.47.92L1,6.55A0.73,0.73,0,0,0,1.76,6a6.59,6.59,0,0,1,.61-1.36,0.74,0.74,0,0,0-.55-1.1h0Zm-1,4H0.7a0.73,0.73,0,0,0-.7.76H0A8.08,8.08,0,0,0,.17,9.74h0v0h0v0h0v0h0v0h0v0h0v0h0a0.73,0.73,0,0,0,.63.54,0.72,0.72,0,0,0,.26,0,0.73,0.73,0,0,0,.51-0.9,6.56,6.56,0,0,1-.22-1.48A0.73,0.73,0,0,0,.8,7.58h0Zm1.29,3.91a0.72,0.72,0,0,0-.49.13,0.74,0.74,0,0,0-.18,1A8.07,8.07,0,0,0,2.62,14a0.72,0.72,0,0,0,1,0,0.74,0.74,0,0,0,0-1,6.66,6.66,0,0,1-1-1.13,0.72,0.72,0,0,0-.52-0.31h0Zm3.18,2.59a0.73,0.73,0,0,0-.36,1.4,8,8,0,0,0,.87.31H6.47l0.2,0h0a0.73,0.73,0,0,0,.2-1.45,6.53,6.53,0,0,1-1.43-.41l-0.2-.05h0Zm5.65,0a0.72,0.72,0,0,0-.36.06,6.46,6.46,0,0,1-1.42.43A0.73,0.73,0,0,0,9.2,16H9.4a7.79,7.79,0,0,0,.79-0.18H11l0.13-.05a0.74,0.74,0,0,0-.22-1.41h0Zm3.17-2.62a0.73,0.73,0,0,0-.68.32,6.61,6.61,0,0,1-1,1.13,0.74,0.74,0,0,0,0,1,0.72,0.72,0,0,0,1,0l0.11-.1h0l0,0h0.1l0,0h0q0.28-.28.53-0.59h0l0,0h0v0h0.13l0,0h0l0.21-.3a0.74,0.74,0,0,0-.19-1,0.75,0.75,0,0,0-.33-0.12h0Zm1.26-3.92H15.3a0.73,0.73,0,0,0-.75.71c0,0.17,0,.34,0,0.51a6.76,6.76,0,0,1-.17,1,0.73,0.73,0,0,0,.52.89l0.11,0a0.73,0.73,0,0,0,.78-0.54,8.21,8.21,0,0,0,.17-0.88h0v0h0v0h0q0-.22,0-0.43a0.72,0.72,0,0,0-.64-0.75h0Zm-1-4a0.72,0.72,0,0,0-.45.1,0.73,0.73,0,0,0-.25,1A6.65,6.65,0,0,1,14.23,6a0.73,0.73,0,1,0,1.38-.45,7.91,7.91,0,0,0-.29-0.77h0v0h0v0H15.23v0h0v0h0Q15,4.19,14.86,3.88a0.73,0.73,0,0,0-.55-0.35h0Zm-3-2.79a0.73,0.73,0,0,0-.4,1.39,6.5,6.5,0,0,1,1.25.81,0.72,0.72,0,0,0,1-.1,0.74,0.74,0,0,0-.1-1l-0.13-.1h0l0,0H12.76l0,0h0l0,0h0A8,8,0,0,0,11.86,1h0l0,0h-0.3A0.68,0.68,0,0,0,11.29.74h0ZM8.84,0H7.35L7,0A0.73,0.73,0,0,0,7,1.5H7.2a6.51,6.51,0,0,1,1.49,0H8.75A0.73,0.73,0,0,0,8.91,0H8.84ZM10,10.69A0.77,0.77,0,0,1,8.95,9.59L10.55,8l-1.6-1.6A0.77,0.77,0,1,1,10,5.3l2.11,2.18a0.79,0.79,0,0,1,0,1.09Zm-3,0a0.8,0.8,0,0,1-1.09,0L3.85,8.53a0.77,0.77,0,0,1,0-1.08L6,5.3a0.8,0.8,0,0,1,1.09,0,0.77,0.77,0,0,1,0,1.08L5.46,8l1.6,1.58A0.77,0.77,0,0,1,7.06,10.69Z"></path>
  </symbol><symbol  viewBox='0 0 16 16' id='icon-local-exercise'>
    <title>leap-icons</title><path d="M8,16a8,8,0,1,1,8-8A8,8,0,0,1,8,16ZM8,1.45A6.55,6.55,0,1,0,14.55,8,6.52,6.52,0,0,0,8,1.45Zm2,9.24A0.77,0.77,0,0,1,8.95,9.6L10.55,8,8.95,6.4A0.77,0.77,0,0,1,10,5.31l2.11,2.18a0.79,0.79,0,0,1,0,1.09Zm-3,0a0.79,0.79,0,0,1-1.09,0L3.85,8.51a0.79,0.79,0,0,1,0-1.09L6,5.24A0.77,0.77,0,1,1,7.05,6.33L5.45,8l1.6,1.6A0.79,0.79,0,0,1,7.05,10.69Z"></path>
  </symbol><symbol  viewBox='0 0 16 16' id='icon-maintenance'>
    <title>leap-icons</title><path d="M8,16a8,8,0,1,1,8-8A8,8,0,0,1,8,16ZM8,2.13A5.87,5.87,0,1,0,13.87,8,5.85,5.85,0,0,0,8,2.13Zm2.67,5.33H10.13A0.5,0.5,0,0,1,9.6,6.93H7a1.64,1.64,0,0,0-1.55.75,0.44,0.44,0,0,1-.32.21H5.07A0.64,0.64,0,0,1,4.8,7.41a6.58,6.58,0,0,1,.37-1.28A2.31,2.31,0,0,1,6.93,4.8H9.6a0.5,0.5,0,0,1,.53-0.53h0.53a0.5,0.5,0,0,1,.53.53V6.93A0.5,0.5,0,0,1,10.67,7.47Zm-3.31,0H8.69a0.41,0.41,0,0,1,.43.37v4.05a0.38,0.38,0,0,1-.43.37H7.36a0.41,0.41,0,0,1-.43-0.37V7.84A0.38,0.38,0,0,1,7.36,7.47Z"></path>
  </symbol><symbol  viewBox='0 0 16 16' id='icon-notifications'>
    <title>leap-icons</title><path d="M13.7,11.4a2,2,0,0,0-.9-0.6H12.7C11.3,9.5,12,8.5,12,7.1A4.73,4.73,0,0,0,9,3.2V3.1a1,1,0,1,0-2,0V3.3A4.67,4.67,0,0,0,4.2,7.1c0,1.3.6,2.4-.7,3.6a3,3,0,0,1-.8.4c-0.1.1-.3,0.2-0.4,0.3a1,1,0,0,0,0,1.4,2,2,0,0,0,.9.6,8.08,8.08,0,0,0,2.1.5C6.1,13.9,7,14,8,14a14.61,14.61,0,0,0,3.9-.4,3.92,3.92,0,0,0,1.3-.5,1.76,1.76,0,0,0,.5-0.4A1.49,1.49,0,0,0,14,12,0.86,0.86,0,0,0,13.7,11.4Zm-1.3.8a6,6,0,0,1-1.8.4,20.12,20.12,0,0,1-2.6.1,12.63,12.63,0,0,1-3.7-.4A4.65,4.65,0,0,1,3.4,12a0.1,0.1,0,0,0,.1-0.1,6,6,0,0,1,1.8-.4A9.15,9.15,0,0,1,7,11.4a1.06,1.06,0,0,0,.9.8,0.88,0.88,0,0,0,.9-0.8,17,17,0,0,1,2.7.3,4.65,4.65,0,0,1,.9.3C12.5,12.1,12.5,12.2,12.4,12.2Z"></path>
  </symbol><symbol  viewBox='0 0 16 16' id='icon-pause'>
    <title>leap-icons</title><path id="_Path_" data-name="&lt;Path&gt;" d="M4.51,16A1.48,1.48,0,0,1,3,14.51v-13a1.49,1.49,0,0,1,3,0v13A1.48,1.48,0,0,1,4.51,16Z"></path><path id="_Path_2" data-name="&lt;Path&gt;" d="M11.49,16A1.48,1.48,0,0,1,10,14.51v-13a1.49,1.49,0,0,1,3,0v13A1.48,1.48,0,0,1,11.49,16Z"></path>
  </symbol><symbol  viewBox='0 0 16 16' id='icon-play-outline'>
    <title>leap-icons</title><path d="M8,16a8,8,0,1,1,8-8A8,8,0,0,1,8,16ZM8,1.33A6.67,6.67,0,1,0,14.67,8,6.69,6.69,0,0,0,8,1.33Zm2.87,7.4L7.2,11.13A0.71,0.71,0,0,1,6,10.47V5.53a0.71,0.71,0,0,1,1.2-.67l3.67,2.4A0.79,0.79,0,0,1,10.87,8.73Z"></path>
  </symbol><symbol  viewBox='0 0 16 16' id='icon-points'>
    <title>leap-icons</title><path d="M8,16a8,8,0,1,1,8-8A8,8,0,0,1,8,16ZM8,4.27A3.73,3.73,0,1,0,11.73,8,3.71,3.71,0,0,0,8,4.27Z"></path><path d="M14.45,3.31A8,8,0,0,1,16,8a8.18,8.18,0,0,1-3.31,6.51L10.19,11a3.67,3.67,0,0,0,1.55-3A3.5,3.5,0,0,0,11,5.81Z"></path><path d="M11,5.81A3.89,3.89,0,0,0,8,4.27H8V0H8a8,8,0,0,1,6.45,3.31Z"></path><path d="M5.87,5a3.79,3.79,0,0,0-1.6,3,4.16,4.16,0,0,0,.21,1.17L0.43,10.51A7.73,7.73,0,0,1,0,8,8,8,0,0,1,3.47,1.44Z"></path>
  </symbol><symbol  viewBox='0 0 16 16' id='icon-preview'>
    <title>leap-icons</title><path d="M8,3.35c2.5,0,4.65,1.79,5.9,3.22a2.3,2.3,0,0,1,0,2.95c-1.25,1.43-3.4,3.13-5.9,3.13S3.35,10.86,2.1,9.43a2.3,2.3,0,0,1,0-2.95C3.35,5.05,5.5,3.35,8,3.35M8,1.74c-3,0-5.54,2-7.06,3.75a3.81,3.81,0,0,0,0,5C2.46,12.29,5,14.26,8,14.26s5.54-2,7.06-3.75a3.81,3.81,0,0,0,0-5C13.54,3.71,11,1.74,8,1.74H8Z"></path><circle cx="8" cy="8" r="1.79"></circle>
  </symbol><symbol  viewBox='0 0 16 16' id='icon-project'>
    <title>leap-icons</title><path d="M15.11,15.11H0.89A0.84,0.84,0,0,1,0,14.22V1.78A0.84,0.84,0,0,1,.89.89H7.11a0.85,0.85,0,0,1,.8.53l1.42,3h5.78a0.84,0.84,0,0,1,.89.89v8.89A0.84,0.84,0,0,1,15.11,15.11ZM1.78,13.33H14.22V6.22H8.71a0.85,0.85,0,0,1-.8-0.53l-1.33-3H1.78V13.33Z"></path><path d="M15.11,2.67h-4a0.84,0.84,0,0,1-.89-0.89A0.84,0.84,0,0,1,11.11.89h4a0.84,0.84,0,0,1,.89.89A0.84,0.84,0,0,1,15.11,2.67Z"></path>
  </symbol><symbol  viewBox='0 0 16 16' id='icon-quiz-badge'>
    <title>leap-icons</title><path d="M13.88,13.1L9.31,15.71A4.24,4.24,0,0,1,8,16a2.72,2.72,0,0,1-1.31-.36L2.12,13.1A2.86,2.86,0,0,1,.74,10.56V5.41A2.83,2.83,0,0,1,2.12,2.94L6.69,0.33a2.78,2.78,0,0,1,2.61,0l4.5,2.61a2.75,2.75,0,0,1,1.45,2.47v5.15A2.86,2.86,0,0,1,13.88,13.1ZM4.37,6.57A1.45,1.45,0,1,0,5.82,8,1.46,1.46,0,0,0,4.37,6.57ZM8,6.57A1.45,1.45,0,1,0,9.45,8,1.46,1.46,0,0,0,8,6.57Zm3.63,0A1.45,1.45,0,1,0,13.08,8,1.46,1.46,0,0,0,11.63,6.57Zm0,2.18A0.69,0.69,0,0,1,10.9,8a0.73,0.73,0,1,1,1.45,0A0.69,0.69,0,0,1,11.63,8.74ZM8,8.74A0.69,0.69,0,0,1,7.27,8,0.69,0.69,0,0,1,8,7.29,0.69,0.69,0,0,1,8.73,8,0.69,0.69,0,0,1,8,8.74Z"></path>
  </symbol><symbol  viewBox='0 0 16 16' id='icon-quiz-suggested'>
    <title>leap-icons</title><path d="M4.81,0.77a0.72,0.72,0,0,0-.4.07L4,1.08H3.37l0,0h0l0,0h0l0,0h0l0,0h0l0,0h0l0,0h0l0,0h0l0,0H2.89a0.74,0.74,0,0,0-.1,1,0.73,0.73,0,0,0,1,.1,6.58,6.58,0,0,1,1.24-.82,0.73,0.73,0,0,0,.32-1A0.72,0.72,0,0,0,4.81.77h0Zm-3,2.81a0.73,0.73,0,0,0-.7.35L1.06,4h0l0,0H1l0,0H1v0H1v0H0.78v0h0v0h0v0h0v0h0v0h0v0h0v0h0v0h0l0,0h0Q0.48,5.26.37,5.61a0.73,0.73,0,0,0,.47.92L1,6.55A0.73,0.73,0,0,0,1.76,6a6.59,6.59,0,0,1,.61-1.36,0.74,0.74,0,0,0-.55-1.1h0Zm-1,4H0.7a0.73,0.73,0,0,0-.7.76H0A8.08,8.08,0,0,0,.17,9.74h0v0h0v0h0v0h0v0h0v0h0v0h0a0.73,0.73,0,0,0,.63.54,0.72,0.72,0,0,0,.26,0,0.73,0.73,0,0,0,.51-0.9,6.56,6.56,0,0,1-.22-1.48A0.73,0.73,0,0,0,.8,7.58h0Zm1.29,3.91a0.72,0.72,0,0,0-.49.13,0.74,0.74,0,0,0-.18,1A8.07,8.07,0,0,0,2.62,14a0.72,0.72,0,0,0,1,0,0.74,0.74,0,0,0,0-1,6.66,6.66,0,0,1-1-1.13,0.72,0.72,0,0,0-.52-0.31h0Zm3.18,2.59a0.73,0.73,0,0,0-.36,1.4,8,8,0,0,0,.87.31H6.47l0.2,0h0a0.73,0.73,0,0,0,.2-1.45,6.53,6.53,0,0,1-1.43-.41l-0.2-.05h0Zm5.65,0a0.72,0.72,0,0,0-.36.06,6.46,6.46,0,0,1-1.42.43A0.73,0.73,0,0,0,9.2,16H9.4a7.79,7.79,0,0,0,.79-0.18H11l0.13-.05a0.74,0.74,0,0,0-.22-1.41h0Zm3.17-2.62a0.73,0.73,0,0,0-.68.32,6.61,6.61,0,0,1-1,1.13,0.74,0.74,0,0,0,0,1,0.72,0.72,0,0,0,1,0l0.11-.1h0l0,0h0.1l0,0h0q0.28-.28.53-0.59h0l0,0h0v0h0.13l0,0h0l0.21-.3a0.74,0.74,0,0,0-.19-1,0.75,0.75,0,0,0-.33-0.12h0Zm1.26-3.92H15.3a0.73,0.73,0,0,0-.75.71c0,0.17,0,.34,0,0.51a6.76,6.76,0,0,1-.17,1,0.73,0.73,0,0,0,.52.89l0.11,0a0.73,0.73,0,0,0,.78-0.54,8.21,8.21,0,0,0,.17-0.88h0v0h0v0h0q0-.22,0-0.43a0.72,0.72,0,0,0-.64-0.75h0Zm-1-4a0.72,0.72,0,0,0-.45.1,0.73,0.73,0,0,0-.25,1A6.65,6.65,0,0,1,14.23,6a0.73,0.73,0,1,0,1.38-.45,7.91,7.91,0,0,0-.29-0.77h0v0h0v0H15.23v0h0v0h0Q15,4.19,14.86,3.88a0.73,0.73,0,0,0-.55-0.35h0Zm-3-2.79a0.73,0.73,0,0,0-.4,1.39,6.5,6.5,0,0,1,1.25.81,0.72,0.72,0,0,0,1-.1,0.74,0.74,0,0,0-.1-1l-0.13-.1h0l0,0H12.76l0,0h0l0,0h0A8,8,0,0,0,11.86,1h0l0,0h-0.3A0.68,0.68,0,0,0,11.29.74h0ZM8.84,0H7.35L7,0A0.73,0.73,0,0,0,7,1.5H7.2a6.51,6.51,0,0,1,1.49,0H8.75A0.73,0.73,0,0,0,8.91,0H8.84Zm-3,8A1.46,1.46,0,1,1,4.36,6.54,1.46,1.46,0,0,1,5.82,8ZM8,6.54A1.46,1.46,0,1,0,9.46,8,1.46,1.46,0,0,0,8,6.54ZM8,8.72A0.73,0.73,0,1,1,8.73,8,0.73,0.73,0,0,1,8,8.72Zm3.64-2.18A1.46,1.46,0,1,0,13.1,8,1.46,1.46,0,0,0,11.64,6.54Zm0,2.18A0.73,0.73,0,1,1,12.37,8,0.73,0.73,0,0,1,11.64,8.72Z"></path>
  </symbol><symbol  viewBox='0 0 16 16' id='icon-quiz'>
    <title>leap-icons</title><path d="M8,16a8,8,0,1,1,8-8A8,8,0,0,1,8,16ZM8,1.45A6.55,6.55,0,1,0,14.55,8,6.52,6.52,0,0,0,8,1.45Zm3.64,8A1.45,1.45,0,1,1,13.09,8,1.46,1.46,0,0,1,11.64,9.45Zm0-2.18a0.69,0.69,0,0,0-.73.73,0.73,0.73,0,1,0,1.45,0A0.69,0.69,0,0,0,11.64,7.27ZM8,9.45A1.45,1.45,0,1,1,9.45,8,1.46,1.46,0,0,1,8,9.45ZM8,7.27A0.69,0.69,0,0,0,7.27,8,0.69,0.69,0,0,0,8,8.73,0.69,0.69,0,0,0,8.73,8,0.69,0.69,0,0,0,8,7.27ZM4.36,9.45A1.45,1.45,0,1,1,5.82,8,1.46,1.46,0,0,1,4.36,9.45Z"></path>
  </symbol><symbol  viewBox='0 0 16 16' id='icon-reload'>
    <title>leap-icons</title><path d="M15.56,6.9l-3-3a1.52,1.52,0,0,0-2.15,0l-3,3A1.52,1.52,0,0,0,9.56,9L9.9,8.7A3.47,3.47,0,1,1,6.5,4.53a1.52,1.52,0,1,0,0-3,6.5,6.5,0,0,0-6,9A6.51,6.51,0,0,0,9,14a6.53,6.53,0,0,0,3.46-3.46A6.4,6.4,0,0,0,13,8.6L13.41,9A1.52,1.52,0,0,0,15.56,6.9Z"></path>
  </symbol><symbol  viewBox='0 0 16 16' id='icon-resume'>
    <title>leap-icons</title><path id="_Path_" data-name="&lt;Path&gt;" d="M3.59,16A1.89,1.89,0,0,1,2,14.68V1.21C2,0.08,4.18-.39,5.07.37l8.13,6A2,2,0,0,1,14,8a2.27,2.27,0,0,1-.79,1.6l-8.13,6A4.33,4.33,0,0,1,3.59,16Z"></path>
  </symbol><symbol  viewBox='0 0 16 16' id='icon-rewind'>
    <title>leap-icons</title><path d="M9.34,6.46c1.15,0,1.92,1.09,1.92,2.5h0c0,1.41-.77,2.5-1.92,2.5S7.42,10.37,7.42,9h0C7.42,7.55,8.19,6.46,9.34,6.46ZM8.26,9c0,1,.45,1.73,1.15,1.73S10.56,9.92,10.56,9h0c0-1-.45-1.73-1.15-1.73S8.26,8,8.26,9h0ZM15,9A7,7,0,0,1,1,9.79,0.24,0.24,0,0,1,1,9.6,0.6,0.6,0,0,1,1.6,9a0.6,0.6,0,0,1,.64.64h0a5.75,5.75,0,1,0,5.7-6.4H7L7.81,4a0.63,0.63,0,1,1-.9.9L5,3a0.62,0.62,0,0,1,0-.9L6.91,0.19a0.62,0.62,0,0,1,.9,0,0.62,0.62,0,0,1,0,.9L7,1.92H8A7.06,7.06,0,0,1,15,9ZM5.31,6.46c0.19,0,.32-0.06.45-0.06h0a0.44,0.44,0,0,1,.45.45v4.22a0.45,0.45,0,1,1-.9,0V7.3L4.8,7.49H4.61A0.41,0.41,0,0,1,4.22,7.1a0.41,0.41,0,0,1,.32-0.38ZM3.14,2.56L4.61,4a0.63,0.63,0,1,1-.9.9L1.79,3a0.62,0.62,0,0,1,0-.9L3.71,0.19a0.62,0.62,0,0,1,.9,0,0.62,0.62,0,0,1,0,.9Z"></path>
  </symbol><symbol  viewBox='0 0 16 16' id='icon-search'>
    <title>leap-icons</title><path d="M15.6,13.5l-4-4a6.39,6.39,0,0,0,1-3.3A6.3,6.3,0,0,0,0,6.2a6.25,6.25,0,0,0,6.3,6.2,5.38,5.38,0,0,0,3.1-.9l4,4.1a1.66,1.66,0,0,0,2.1,0A1.55,1.55,0,0,0,15.6,13.5ZM6.5,9.4A3.31,3.31,0,0,1,3.2,6.2,3.24,3.24,0,0,1,6.5,3,3.31,3.31,0,0,1,9.8,6.2,3.31,3.31,0,0,1,6.5,9.4Z"></path>
  </symbol><symbol  viewBox='0 0 16 16' id='icon-speed'>
    <title>leap-icons</title><path d="M8,16a8,8,0,1,1,8-8A7.93,7.93,0,0,1,8,16ZM8,1.45A6.55,6.55,0,1,0,14.55,8,6.52,6.52,0,0,0,8,1.45Zm5.45,6.91H12.73a0.36,0.36,0,1,1,0-.73h0.73A0.36,0.36,0,1,1,13.45,8.36Zm-1.82,3.71-0.51-.51a0.36,0.36,0,0,1,.51-0.51l0.51,0.51A0.36,0.36,0,0,1,11.64,12.07ZM11.56,4.95a0.36,0.36,0,1,1-.51-0.51l0.58-.51a0.36,0.36,0,0,1,.51.51ZM7.71,13.16a1.49,1.49,0,0,1-1.16-1.75C6.69,10.62,8.65,6.18,9,6.25S9.6,11.2,9.45,12A1.55,1.55,0,0,1,7.71,13.16ZM8.07,11a0.7,0.7,0,1,0,.58.8A0.64,0.64,0,0,0,8.07,11ZM8,3.64a0.34,0.34,0,0,1-.36-0.36V2.55a0.36,0.36,0,0,1,.73,0V3.27A0.34,0.34,0,0,1,8,3.64ZM4.36,12.07a0.36,0.36,0,0,1-.51-0.51l0.51-.51a0.36,0.36,0,0,1,.51.51ZM4.44,4.95L3.93,4.36a0.36,0.36,0,1,1,.51-0.51L4.95,4.36a0.44,0.44,0,0,1,0,.58A0.35,0.35,0,0,1,4.44,4.95ZM3.27,8.36H2.55a0.36,0.36,0,0,1,0-.73H3.27A0.36,0.36,0,0,1,3.27,8.36Z"></path>
  </symbol><symbol  viewBox='0 0 16 16' id='icon-star'>
    <title>leap-icons</title><path d="M15.88,5.91a2.55,2.55,0,0,0-1.24-.39c-0.43-.06-1.05-0.13-1.8-0.19S11.17,5.2,10.67,5.2C10.55,4.76,10.24,4,9.93,3.28A10.86,10.86,0,0,0,8.57.39,0.6,0.6,0,0,0,8.07,0H8a0.54,0.54,0,0,0-.5.39A15.53,15.53,0,0,0,6.09,3.28C5.78,4,5.54,4.76,5.35,5.2a18,18,0,0,1-2.17.13c-0.74.06-1.36,0.13-1.8,0.19C0.52,5.65.33,5.65,0.15,5.91A0.51,0.51,0,0,0,0,6.43c0.06,0.32.19,0.77,2,2.38,0.62,0.51,1.18,1,1.55,1.29-0.12.45-.43,1.41-0.74,2.31a11.27,11.27,0,0,0-.5,1.93c-0.19.9-.25,1.22,0,1.48a0.6,0.6,0,0,0,.5.19c0.19,0,.68,0,3-1.29,0.87-.45,1.67-1,2.17-1.22,0.43,0.26,1.3.77,2.17,1.22C12.47,16,13,16,13.15,16a0.73,0.73,0,0,0,.5-0.19c0.25-.26.19-0.58,0-1.48-0.12-.45-0.31-1.09-0.5-1.93s-0.56-1.86-.74-2.31c0.37-.26.93-0.77,1.55-1.29,1.86-1.61,2-2.06,2-2.38A0.71,0.71,0,0,0,15.88,5.91Z"></path>
  </symbol><symbol  viewBox='0 0 16 16' id='icon-stat-badges'>
    <title>leap-icons</title><path d="M8,1.6H8l5.6,3.2h0v6.32h0L8,14.4H8l-5.6-3.2h0V4.88h0L8,1.6H8M8,0a1.91,1.91,0,0,0-.72.16L1.56,3.44A1.78,1.78,0,0,0,.84,4.8v6.4a1.78,1.78,0,0,0,.72,1.36l5.68,3.28A2.84,2.84,0,0,0,8,16a1.91,1.91,0,0,0,.72-0.16l5.68-3.28a1.66,1.66,0,0,0,.72-1.36V4.8a1.78,1.78,0,0,0-.72-1.36L8.84,0.16A2.37,2.37,0,0,0,8,0H8Z" style="fill:#231f20"></path>
  </symbol><symbol  viewBox='0 0 16 16' id='icon-stat-challenges'>
    <title>leap-icons</title><path d="M15.78,8.73l-5.16,5.6a0.62,0.62,0,0,1-.95,0,0.79,0.79,0,0,1,0-1.09L14.55,8,9.67,2.76a0.79,0.79,0,0,1,0-1.09,0.62,0.62,0,0,1,.95,0l5.16,5.6A1,1,0,0,1,16,8,1,1,0,0,1,15.78,8.73ZM0.22,7.27l5.16-5.6a0.62,0.62,0,0,1,.95,0,0.79,0.79,0,0,1,0,1.09L1.53,8,6.4,13.24a0.79,0.79,0,0,1,0,1.09,0.62,0.62,0,0,1-.95,0L0.22,8.73A0.88,0.88,0,0,1,0,8,1,1,0,0,1,.22,7.27Z"></path>
  </symbol><symbol  viewBox='0 0 16 16' id='icon-stat-courses'>
    <title>leap-icons</title><path d="M0,1.74V12.14a1.11,1.11,0,0,0,1,1c1.68,0.24,4.88.56,6.08,1.36l0.24,0.24L7.6,15.1a0.6,0.6,0,0,0,.72,0l0.32-.32,0.24-.24c1.12-.88,4.4-1.28,6.16-1.36a1.1,1.1,0,0,0,1-1V1.74a0.9,0.9,0,0,0-.88-1C13.35,0.86,9.83,1.1,8,2.38,6.24,1.1,2.72.86,1,.78A1,1,0,0,0,0,1.74ZM7.2,12.94a18.3,18.3,0,0,0-5.6-1.36v-9A11.37,11.37,0,0,1,7.2,4v9Zm7.2-1.36a18.3,18.3,0,0,0-5.6,1.36V4A6.25,6.25,0,0,1,11,3.1l2.16-.48c0.32,0,.88-0.08,1.28-0.08v9H14.39v0.08Z"></path>
  </symbol><symbol  viewBox='0 0 16 16' id='icon-stat-points'>
    <title>leap-icons</title><path d="M15.2,7.2H8.8V0.8A0.8,0.8,0,0,0,8,0a0.76,0.76,0,0,0-.8.8V7.2H0.8A0.76,0.76,0,0,0,0,8a0.76,0.76,0,0,0,.8.8H7.2v6.4A0.8,0.8,0,0,0,8,16a0.76,0.76,0,0,0,.8-0.8V8.8h6.4A0.76,0.76,0,0,0,16,8,0.76,0.76,0,0,0,15.2,7.2Z"></path>
  </symbol><symbol  viewBox='0 0 16 16' id='icon-stat-quizzes'>
    <title>leap-icons</title><path d="M2.18,5.82A2.18,2.18,0,1,1,0,8,2.18,2.18,0,0,1,2.18,5.82ZM8,6.91A1.09,1.09,0,1,1,6.91,8,1.12,1.12,0,0,1,8,6.91M8,5.82A2.18,2.18,0,1,0,10.18,8,2.14,2.14,0,0,0,8,5.82H8Zm5.82,1.09A1.09,1.09,0,1,1,12.73,8a1.12,1.12,0,0,1,1.09-1.09m0-1.09A2.18,2.18,0,1,0,16,8a2.14,2.14,0,0,0-2.18-2.18h0Z"></path>
  </symbol><symbol  viewBox='0 0 16 16' id='icon-step-completed'>
    <title>leap-icons</title><path d="M8,16a8,8,0,1,1,8-8A8,8,0,0,1,8,16ZM10.91,5.67a0.74,0.74,0,0,0-1.09.15L7.42,8.95,6,7.85a0.88,0.88,0,0,0-1.16.07A0.79,0.79,0,0,0,4.95,9l2,1.67a0.88,0.88,0,0,0,1.16-.07c2.18-3,2.84-3.85,2.91-3.78A0.81,0.81,0,0,0,10.91,5.67Z"></path>
  </symbol><symbol  viewBox='0 0 16 16' id='icon-track'>
    <title>leap-icons</title><path d="M3.56,0a0.84,0.84,0,0,0-.89.89V15.11a0.84,0.84,0,0,0,.89.89,0.84,0.84,0,0,0,.89-0.89V0.89A0.84,0.84,0,0,0,3.56,0Z"></path><path d="M12.44,0a0.84,0.84,0,0,0-.89.89V15.11a0.89,0.89,0,1,0,1.78,0V0.89A0.84,0.84,0,0,0,12.44,0Z"></path><path d="M0,13.33a0.84,0.84,0,0,0,.89.89H1.78V12.44H0.89A0.84,0.84,0,0,0,0,13.33Z"></path><path d="M0,8a0.84,0.84,0,0,0,.89.89H1.78V7.11H0.89A0.84,0.84,0,0,0,0,8Z"></path><path d="M0,2.67a0.84,0.84,0,0,0,.89.89H1.78V1.78H0.89A0.84,0.84,0,0,0,0,2.67Z"></path><path d="M15.11,7.11H14.22V8.89h0.89A0.84,0.84,0,0,0,16,8,0.84,0.84,0,0,0,15.11,7.11Z"></path><path d="M15.11,12.44H14.22v1.78h0.89A0.89,0.89,0,0,0,15.11,12.44Z"></path><path d="M5.33,1.78h5.33V3.56H5.33V1.78Zm0,5.33h5.33V8.89H5.33V7.11Zm0,5.33h5.33v1.78H5.33V12.44Z"></path><path d="M16,2.67a0.84,0.84,0,0,0-.89-0.89H14.22V3.56h0.89A0.84,0.84,0,0,0,16,2.67Z"></path>
  </symbol><symbol  viewBox='0 0 16 16' id='icon-twitter'>
    <title>leap-icons</title><path id="twitter-icon" d="M14.38,4.9V5.26A9.1,9.1,0,0,1,5,14.34,9.43,9.43,0,0,1,0,12.9C0.27,12.9.45,13,.81,13a6.53,6.53,0,0,0,4-1.44A3.21,3.21,0,0,1,1.8,9.3a1.67,1.67,0,0,0,.63.18c0.36,0,.54-0.09.9-0.09A3.42,3.42,0,0,1,.63,6.34V6.16a2.85,2.85,0,0,0,1.44.36A3.1,3.1,0,0,1,.63,3.91,3.72,3.72,0,0,1,1.08,2.2,9.36,9.36,0,0,0,7.91,5.62,2.12,2.12,0,0,1,7.73,4.9a3.3,3.3,0,0,1,3.33-3.24,3.12,3.12,0,0,1,2.34,1,5.84,5.84,0,0,0,2.07-.81A2.78,2.78,0,0,1,14,3.55a20.22,20.22,0,0,0,2-.45A4.5,4.5,0,0,1,14.38,4.9Z"></path>
  </symbol><symbol  viewBox='0 0 16 16' id='icon-video-badge'>
    <title>leap-icons</title><path d="M13.88,13.1L9.31,15.71A3.82,3.82,0,0,1,8,16a2.72,2.72,0,0,1-1.31-.36L2.2,13.1A2.78,2.78,0,0,1,.74,10.56V5.41A2.75,2.75,0,0,1,2.2,2.94L6.77,0.33a2.78,2.78,0,0,1,2.61,0l4.5,2.61a2.83,2.83,0,0,1,1.38,2.47v5.15A2.86,2.86,0,0,1,13.88,13.1ZM11,7.22l-4-2.61c-0.65-.44-1.23-0.15-1.23.73v5.44a0.78,0.78,0,0,0,1.31.73l4-2.61A0.93,0.93,0,0,0,11,7.22Z"></path>
  </symbol><symbol  viewBox='0 0 16 16' id='icon-video-suggested'>
    <title>leap-icons</title><path d="M4.81,0.77a0.72,0.72,0,0,0-.4.07L4,1.08H3.37l0,0h0l0,0h0l0,0h0l0,0h0l0,0h0l0,0h0l0,0h0l0,0H2.89a0.74,0.74,0,0,0-.1,1,0.73,0.73,0,0,0,1,.1,6.58,6.58,0,0,1,1.24-.82,0.73,0.73,0,0,0,.32-1A0.72,0.72,0,0,0,4.81.77h0Zm-3,2.81a0.73,0.73,0,0,0-.7.35L1.06,4h0l0,0H1l0,0H1v0H1v0H0.78v0h0v0h0v0h0v0h0v0h0v0h0v0h0v0h0l0,0h0Q0.48,5.26.37,5.61a0.73,0.73,0,0,0,.47.92L1,6.55A0.73,0.73,0,0,0,1.76,6a6.59,6.59,0,0,1,.61-1.36,0.74,0.74,0,0,0-.55-1.1h0Zm-1,4H0.7a0.73,0.73,0,0,0-.7.76H0A8.08,8.08,0,0,0,.17,9.74h0v0h0v0h0v0h0v0h0v0h0v0h0a0.73,0.73,0,0,0,.63.54,0.72,0.72,0,0,0,.26,0,0.73,0.73,0,0,0,.51-0.9,6.56,6.56,0,0,1-.22-1.48A0.73,0.73,0,0,0,.8,7.58h0Zm1.29,3.91a0.72,0.72,0,0,0-.49.13,0.74,0.74,0,0,0-.18,1A8.07,8.07,0,0,0,2.62,14a0.72,0.72,0,0,0,1,0,0.74,0.74,0,0,0,0-1,6.66,6.66,0,0,1-1-1.13,0.72,0.72,0,0,0-.52-0.31h0Zm3.18,2.59a0.73,0.73,0,0,0-.36,1.4,8,8,0,0,0,.87.31H6.47l0.2,0h0a0.73,0.73,0,0,0,.2-1.45,6.53,6.53,0,0,1-1.43-.41l-0.2-.05h0Zm5.65,0a0.72,0.72,0,0,0-.36.06,6.46,6.46,0,0,1-1.42.43A0.73,0.73,0,0,0,9.2,16H9.4a7.79,7.79,0,0,0,.79-0.18H11l0.13-.05a0.74,0.74,0,0,0-.22-1.41h0Zm3.17-2.62a0.73,0.73,0,0,0-.68.32,6.61,6.61,0,0,1-1,1.13,0.74,0.74,0,0,0,0,1,0.72,0.72,0,0,0,1,0l0.11-.1h0l0,0h0.1l0,0h0q0.28-.28.53-0.59h0l0,0h0v0h0.13l0,0h0l0.21-.3a0.74,0.74,0,0,0-.19-1,0.75,0.75,0,0,0-.33-0.12h0Zm1.26-3.92H15.3a0.73,0.73,0,0,0-.75.71c0,0.17,0,.34,0,0.51a6.76,6.76,0,0,1-.17,1,0.73,0.73,0,0,0,.52.89l0.11,0a0.73,0.73,0,0,0,.78-0.54,8.21,8.21,0,0,0,.17-0.88h0v0h0v0h0q0-.22,0-0.43a0.72,0.72,0,0,0-.64-0.75h0Zm-1-4a0.72,0.72,0,0,0-.45.1,0.73,0.73,0,0,0-.25,1A6.65,6.65,0,0,1,14.23,6a0.73,0.73,0,1,0,1.38-.45,7.91,7.91,0,0,0-.29-0.77h0v0h0v0H15.23v0h0v0h0Q15,4.19,14.86,3.88a0.73,0.73,0,0,0-.55-0.35h0Zm-3-2.79a0.73,0.73,0,0,0-.4,1.39,6.5,6.5,0,0,1,1.25.81,0.72,0.72,0,0,0,1-.1,0.74,0.74,0,0,0-.1-1l-0.13-.1h0l0,0H12.76l0,0h0l0,0h0A8,8,0,0,0,11.86,1h0l0,0h-0.3A0.68,0.68,0,0,0,11.29.74h0ZM8.84,0H7.35L7,0A0.73,0.73,0,0,0,7,1.5H7.2a6.51,6.51,0,0,1,1.49,0H8.75A0.73,0.73,0,0,0,8.91,0H8.84ZM11.1,8.8l-4,2.63a0.78,0.78,0,0,1-1.3-.73V5.29a0.78,0.78,0,0,1,1.3-.73l4,2.63A0.87,0.87,0,0,1,11.1,8.8Z"></path>
  </symbol><symbol  viewBox='0 0 16 16' id='icon-video'>
    <title>leap-icons</title><path d="M8,16a8,8,0,1,1,8-8A8,8,0,0,1,8,16ZM8,1.45A6.55,6.55,0,1,0,14.55,8,6.52,6.52,0,0,0,8,1.45ZM11.05,8.8l-4,2.62a0.78,0.78,0,0,1-1.31-.73V5.31a0.78,0.78,0,0,1,1.31-.73l4,2.62A0.86,0.86,0,0,1,11.05,8.8Z"></path>
  </symbol><symbol  viewBox='0 0 16 16' id='icon-volume'>
    <title>leap-icons</title><path d="M13.84,15.36a0.92,0.92,0,0,1-1.23.51,1.07,1.07,0,0,1,0-1.3,12.69,12.69,0,0,0,0-13.19,1.08,1.08,0,0,1,0-1.3,1,1,0,0,1,1.23.51A14.26,14.26,0,0,1,13.84,15.36Zm-3.55-2.25a0.8,0.8,0,0,1-.29-1A9.91,9.91,0,0,0,10,4a0.78,0.78,0,0,1,.29-1,0.74,0.74,0,0,1,1,.43,11.1,11.1,0,0,1,0,9.35A0.83,0.83,0,0,1,10.29,13.11Zm-3,.65h0a0.27,0.27,0,0,1-.14-0.14L3.62,10.87H0.72C0.29,10.87,0,9.56,0,8s0.29-2.9.72-2.9h2.9L7.1,2.32a0.27,0.27,0,0,1,.14-0.14C7.68,2.17,8,4.78,8,8S7.61,13.77,7.25,13.77Z"></path>
  </symbol><symbol  viewBox='0 0 16 16' id='icon-website'>
    <title>leap-icons</title><path d="M7.84,6.64h0v0ZM8,0a8,8,0,1,0,8,8A8,8,0,0,0,8,0Zm5.11,3.13a1.13,1.13,0,0,0-.69.16,0.87,0.87,0,0,1-.26.17c-0.1,0-.21,0-0.31,0-0.36.12-.31,0.9-0.79,0.78a1,1,0,0,1-.5-0.49c-0.1-.15-0.28-0.28-0.16-0.47-0.06,0-.12,0-0.17,0a1.32,1.32,0,0,1,.38-0.24c0.11-.22-0.29-0.24-0.41-0.27,0.14-.15.21,0,0.34,0s-0.07-.2-0.15-0.22-0.48.13-.22-0.11l-1-.62C9.15,2.11,9.64,2.24,9.8,2.32a0.27,0.27,0,0,1-.29.19c-0.11,0-.06-0.22-0.23-0.2-0.12.27,0.24,0.19,0.28,0.35s-0.14.11-.2,0.1-0.14-.13-0.15,0a1.71,1.71,0,0,0,.21.19,0.84,0.84,0,0,1-.56-0.21,0.89,0.89,0,0,0-.63-0.14,1.16,1.16,0,0,0,.27-0.12,1.39,1.39,0,0,0,.2-0.21c0-.14,0-0.13-0.14-0.23a1.42,1.42,0,0,0-.42-0.26C7.61,1.66,8,2.25,7.58,2.34a0.68,0.68,0,0,0-.33,0s0,0.18-.09.23a1.48,1.48,0,0,1-.32.18,1.39,1.39,0,0,0-.38.34c-0.21.41,0.49,0.54,0.75,0.66A2.05,2.05,0,0,1,7.75,4c0.09,0.12-.08.24,0.11,0.32a0.23,0.23,0,0,0,.23,0C8.16,4.19,8,4.16,8,4.06s0-.12.13-0.2,0.16-.16.09-0.41a0.64,0.64,0,0,1,0-.52A1,1,0,0,1,8.79,3a0.63,0.63,0,0,1,.28.28,0.34,0.34,0,0,0,.22.15c0.14,0,.08-0.14.16-0.19s0.27,0.05.35,0.25a0.86,0.86,0,0,0,.3.38,0.75,0.75,0,0,1,.32.38,1,1,0,0,1-.44.24c-0.32.1-.92-0.17-1,0.34a0.78,0.78,0,0,1,.58-0.2,0.57,0.57,0,0,1,0,.21C9.63,5,9.77,5,9.92,4.93a0.4,0.4,0,0,0,.25-0.24,1.21,1.21,0,0,1,.12-0.23c0.15-.14.17,0,0.26,0.06a0.65,0.65,0,0,1,.17.34A1,1,0,0,0,10,5a2.07,2.07,0,0,1-.4.25,0.41,0.41,0,0,1-.27,0c0-.07.21-0.11,0.27-0.18a0.51,0.51,0,0,0-.46.18,1.36,1.36,0,0,0-.3.31,1.48,1.48,0,0,0-.21.12C8.56,5.7,8.56,5.8,8.51,5.86a0.57,0.57,0,0,0-.16.08,0.55,0.55,0,0,0,0,.22,1.18,1.18,0,0,1-.32.28,1.29,1.29,0,0,0-.21.21,2.29,2.29,0,0,1,.09.53C7.85,7.41,7.7,7,7.63,6.94a0.92,0.92,0,0,0-1-.08,0.67,0.67,0,0,0-.53.94A0.47,0.47,0,0,0,6.67,8a4.71,4.71,0,0,1,.44-0.32c0.34,0,0,.33,0,0.46s0,0.12.16,0.15a1,1,0,0,1,.29,0s0,0.21.11,0.15a0.32,0.32,0,0,0,0,.46,1.21,1.21,0,0,0,.48,0c0.29,0.08.15,0,.41-0.18s0.2,0,.32,0a0.55,0.55,0,0,1,.27-0.08,2,2,0,0,0,.29.13c0.05,0,.11,0,0.16,0a1.36,1.36,0,0,1,.62.32,1.14,1.14,0,0,0,.45.15,0.54,0.54,0,0,1,.37.4s-0.12.19-.14,0.25a1.6,1.6,0,0,0,.35,0s-0.19.14-.19,0.08a0.47,0.47,0,0,0,.14.12c0.08-.28.23-0.1,0.4,0a3.07,3.07,0,0,0,.47.1,1.27,1.27,0,0,1,.51.23,0.4,0.4,0,0,1,0,.46,2,2,0,0,0-.35.43,3.3,3.3,0,0,0,0,.48c0,0.23-.08.15-0.23,0.29a0.33,0.33,0,0,1-.17.17,0.71,0.71,0,0,0-.44.24v0a1.7,1.7,0,0,0-.1.26,1.28,1.28,0,0,1-.24.3,3.44,3.44,0,0,1-.39.46,1.42,1.42,0,0,1-.3,0c0,0.06,0,0,.06.07C10.28,14,10.13,14,9.76,14c0,0.18-.13.15-0.21,0.24a1.68,1.68,0,0,0-.1.29,2.83,2.83,0,0,0-.17.27,0.31,0.31,0,0,0,.09.13,6.9,6.9,0,0,1-.8.11c0.05-.06.06-0.12-0.1-0.13,0-.12.15-0.18,0.19-0.3s0-.08,0-0.13a0.25,0.25,0,0,0,0-.26,1.1,1.1,0,0,1,.12-0.73A10.46,10.46,0,0,0,9,12.45a1.69,1.69,0,0,0,0-.65,1.58,1.58,0,0,0-.47-0.42,2.6,2.6,0,0,1-.41-0.55,2.71,2.71,0,0,1-.2-0.32c-0.11-.24,0-0.1,0-0.24a1.53,1.53,0,0,1,0-.4C8,9.72,8.16,9.62,8.21,9.46a0.29,0.29,0,0,0-.14-0.37,1.7,1.7,0,0,0-.25,0,0.86,0.86,0,0,1-.33-0.17C7.36,8.84,7.31,8.68,7.18,8.59a0.84,0.84,0,0,0-.31-0.07,2.1,2.1,0,0,1-.3-0.24,1,1,0,0,0-.4,0A2.3,2.3,0,0,1,5.7,8.07a0.87,0.87,0,0,1-.52-0.5,1.82,1.82,0,0,0-.37-0.52,0.78,0.78,0,0,0-.44-0.4,0.62,0.62,0,0,0,.07.22,5,5,0,0,0,.31.44c0.15,0.21.09,0.25-.07,0S4.31,6.88,4.16,6.63A0.81,0.81,0,0,0,4,6.39C3.93,6.3,3.81,6.26,3.72,6.17a1.25,1.25,0,0,1-.35-1.12,1.42,1.42,0,0,0,0-.38,0.53,0.53,0,0,0-.16-0.28l-0.1-.15a1.24,1.24,0,0,0-.25-0.35L2.48,3.58A7.12,7.12,0,0,1,5.33,1.44a0.43,0.43,0,0,0,.07.17,0.44,0.44,0,0,0,.36.16C5.74,2,5.5,2,5.33,2A0.6,0.6,0,0,0,4.75,2c0.09,0.06.35,0.28,0.32,0a3.42,3.42,0,0,1,.56,0A1.16,1.16,0,0,0,6,2.15,1.42,1.42,0,0,0,6.11,2a1.44,1.44,0,0,0-.16,0c0.12-.16.24,0,0.4,0-0.17.1-.07,0.35,0.1,0.15s0-.29-0.21-0.39c0.18-.22.29-0.24,0.45,0,0-.15.15-0.09,0.28-0.08v0c-0.06,0-.12,0-0.17,0,0.13-.21,0-0.26.24-0.33a1.32,1.32,0,0,0,.63-0.15,3.72,3.72,0,0,0-.94.21c-0.12.06-.26,0.24-0.37,0.12s0.08-.32.19-0.39h0A7,7,0,0,1,9,1a0.48,0.48,0,0,0-.11.16,3,3,0,0,1-.6.28c0.23,0,.79.22,0.89-0.11l-0.22,0a1.9,1.9,0,0,1,.46-0.22,7.08,7.08,0,0,1,3.75,2.07h0ZM7.6,2.34h0Zm6.81,3.6s0,0,.06-0.06a0.79,0.79,0,0,1,.05-0.12,0.73,0.73,0,0,1,.12-0.09l0,0a6.85,6.85,0,0,1,.28,1h0a0.53,0.53,0,0,1-.15,0,0.3,0.3,0,0,1-.2-0.1,0.91,0.91,0,0,1-.17-0.19,0.36,0.36,0,0,1,0-.23A0.72,0.72,0,0,1,14.4,5.93ZM14.5,9.6a2.27,2.27,0,0,1-.4-0.43,0.84,0.84,0,0,1,0-.52,1.54,1.54,0,0,1,0-.53A1.63,1.63,0,0,1,14.19,8a1.61,1.61,0,0,1,.12-0.29,1.87,1.87,0,0,1,.28-0.21,0.75,0.75,0,0,0,.15-0.26A1,1,0,0,1,15,6.93,7.18,7.18,0,0,1,15.08,8a7.07,7.07,0,0,1-.24,1.82A0.88,0.88,0,0,1,14.5,9.6Z"></path>
  </symbol><symbol  viewBox='0 0 16 16' id='icon-workshop'>
    <title>leap-icons</title><path d="M16,13.33l-2.49,2.4a1,1,0,0,1-.62.27h0a0.81,0.81,0,0,1-.62-0.27l-2.49-2.4h0V0.89A0.84,0.84,0,0,1,10.67,0h4.44A0.84,0.84,0,0,1,16,.89V13.33h0ZM14.22,1.78H11.56V3.56h2.67V1.78Zm0,10.49V4.44H11.56v7.82l1.33,1.07h0ZM5.33,16H0.89A0.84,0.84,0,0,1,0,15.11V0.89A0.84,0.84,0,0,1,.89,0H5.33a0.84,0.84,0,0,1,.89.89V15.11A0.84,0.84,0,0,1,5.33,16ZM4.44,1.78H1.78V3.56H3.11A0.42,0.42,0,0,1,3.56,4a0.42,0.42,0,0,1-.44.44H1.78V6.22H2.22a0.44,0.44,0,1,1,0,.89H1.78V8.89H3.11a0.44,0.44,0,1,1,0,.89H1.78v1.78H2.22a0.44,0.44,0,1,1,0,.89H1.78v1.78H4.44V1.78Z"></path>
  </symbol><symbol  viewBox='0 0 16 16' id='icon-workspaces-outline'>
    <title>leap-icons</title><path d="M12.69,0H3.31A3.31,3.31,0,0,0,0,3.31v9.37A3.31,3.31,0,0,0,3.31,16h9.37A3.31,3.31,0,0,0,16,12.69V3.31A3.31,3.31,0,0,0,12.69,0ZM14,12.69A1.31,1.31,0,0,1,12.69,14H3.31A1.31,1.31,0,0,1,2,12.69V6H14v6.69ZM14,4H2V3.31A1.31,1.31,0,0,1,3.31,2h9.37A1.31,1.31,0,0,1,14,3.31V4Z"></path><path d="M9.2,11.83a0.76,0.76,0,0,0,.4.2,0.4,0.4,0,0,0,.4-0.2L11.7,10a0.72,0.72,0,0,0,0-1L10,7.22a0.61,0.61,0,0,0-.8,0,0.9,0.9,0,0,0,0,1l1.2,1.3-1.2,1.2A0.9,0.9,0,0,0,9.2,11.83Z"></path><path d="M6,11.83a0.34,0.34,0,0,0,.4.2,1.06,1.06,0,0,0,.5-0.2,0.76,0.76,0,0,0,0-1L5.7,9.63l1.2-1.3a1.42,1.42,0,0,0-.1-1.1,0.47,0.47,0,0,0-.8,0L4.2,9a0.72,0.72,0,0,0,0,1Z"></path>
  </symbol><symbol  viewBox='0 0 16 16' id='icon-workspaces'>
    <title>leap-icons</title><path d="M15,16H1a0.94,0.94,0,0,1-1-1V1A0.94,0.94,0,0,1,1,0H15a0.94,0.94,0,0,1,1,1V15A0.94,0.94,0,0,1,15,16ZM9.2,12.8a0.76,0.76,0,0,0,.4.2,0.4,0.4,0,0,0,.4-0.2L11.7,11a0.73,0.73,0,0,0,0-1L10,8.2a0.61,0.61,0,0,0-.8,0,0.9,0.9,0,0,0,0,1l1.2,1.3L9.2,11.7A0.9,0.9,0,0,0,9.2,12.8ZM4.2,11L6,12.8a0.34,0.34,0,0,0,.4.2,1.06,1.06,0,0,0,.5-0.2,0.76,0.76,0,0,0,0-1L5.7,10.6,6.9,9.3a1.42,1.42,0,0,0-.1-1.1,0.47,0.47,0,0,0-.8,0L4.2,10A0.73,0.73,0,0,0,4.2,11ZM14,2H2V5H14V2ZM3.5,3a0.47,0.47,0,0,1,.5.5,0.47,0.47,0,0,1-.5.5A0.47,0.47,0,0,1,3,3.5,0.47,0.47,0,0,1,3.5,3Zm2,0a0.47,0.47,0,0,1,.5.5,0.47,0.47,0,0,1-.5.5A0.47,0.47,0,0,1,5,3.5,0.47,0.47,0,0,1,5.5,3Zm2,0a0.47,0.47,0,0,1,.5.5,0.5,0.5,0,0,1-1,0A0.47,0.47,0,0,1,7.5,3Z"></path>
  </symbol></svg>